<svg xmlns="http://www.w3.org/2000/svg" viewBox="0 0 80 80"><defs><style>.cls-1{isolation:isolate;}.cls-2{fill:none;stroke:#37b34a;stroke-miterlimit:10;stroke-width:2px;mix-blend-mode:multiply;}</style></defs><g class="cls-1"><g id="Layer_1" data-name="Layer 1"><path class="cls-2" d="M31.85,28.66H52.39a3.86,3.86,0,0,1,3.85,3.86V37a3.86,3.86,0,0,1-3.85,3.86"/><rect class="cls-2" x="25.9" y="25.18" width="6.59" height="6.59"/><polygon class="cls-2" points="51.85 36.26 51.85 44.38 44.06 40.36 51.85 36.26"/><path class="cls-2" d="M48.15,51.34H27.61a3.86,3.86,0,0,1-3.85-3.86V43a3.86,3.86,0,0,1,3.85-3.86"/><rect class="cls-2" x="47.51" y="48.23" width="6.59" height="6.59" transform="translate(101.61 103.06) rotate(-180)"/><polygon class="cls-2" points="28.15 43.74 28.15 35.62 35.94 39.64 28.15 43.74"/><rect class="cls-2" x="37.39" y="37.23" width="5.54" height="5.54"/></g></g></svg>