<?xml version="1.0" encoding="utf-8"?>
<!-- Generator: Adobe Illustrator 24.2.1, SVG Export Plug-In . SVG Version: 6.00 Build 0)  -->
<svg version="1.1" id="Layer_1" xmlns="http://www.w3.org/2000/svg" xmlns:xlink="http://www.w3.org/1999/xlink" x="0px" y="0px"
	 viewBox="0 0 85.6 86.11" style="enable-background:new 0 0 85.6 86.11;" xml:space="preserve">
<style type="text/css">
	.st0{fill:#FFFFFF;stroke:#37B34A;stroke-width:4;stroke-miterlimit:10;}
	.st1{fill:#37B34A;}
	.st2{fill:none;stroke:#37B34A;stroke-width:4;stroke-linecap:round;stroke-miterlimit:10;}
</style>
<path class="st0" d="M56.23,41.14c0-6.86-5.56-12.42-12.42-12.42s-12.42,5.56-12.42,12.42c0,4.6,2.08,8.35,5.8,10.5
	c-0.01,0.08,0.41,0.42,0.41,0.5v4.71c0,1.42,1.15,2.57,2.57,2.57h7.29c1.42,0,2.57-1.15,2.57-2.57v-4.71c0-0.08-0.02-0.16-0.02-0.24
	C53.72,49.76,56.23,45.75,56.23,41.14z"/>
<path class="st1" d="M50.09,62.86H37.52c-1.1,0-2,0.9-2,2s0.9,2,2,2h2.43c0,2.13,1.73,3.86,3.86,3.86s3.86-1.73,3.86-3.86h2.43
	c1.1,0,2-0.9,2-2S51.2,62.86,50.09,62.86z"/>
<line class="st2" x1="43.81" y1="14.29" x2="43.81" y2="21.14"/>
<line class="st2" x1="68.16" y1="45.71" x2="61.31" y2="45.71"/>
<line class="st2" x1="64.74" y1="26.86" x2="58.97" y2="30.58"/>
<line class="st2" x1="21.57" y1="26.86" x2="27.33" y2="30.58"/>
<line class="st2" x1="24.45" y1="45.71" x2="17.59" y2="45.71"/>
</svg>
