<?xml version="1.0" encoding="utf-8"?>
<!-- Generator: Adobe Illustrator 24.2.0, SVG Export Plug-In . SVG Version: 6.00 Build 0)  -->
<svg version="1.1" id="Layer_1" xmlns="http://www.w3.org/2000/svg" xmlns:xlink="http://www.w3.org/1999/xlink" x="0px" y="0px"
	 viewBox="0 0 204.1 204.1" style="enable-background:new 0 0 204.1 204.1;" xml:space="preserve">
<style type="text/css">
	.st0{fill:#00A69C;}
	.st1{fill:#008852;}
	.st2{fill:#8BC53F;}
	.st3{fill:#F05A28;}
	.st4{fill:#37B34A;}
	.st5{fill:#F6921E;}
	.st6{enable-background:new    ;}
	.st7{fill:#FFFFFF;}
	.st8{fill:#404041;}
</style>
<circle class="st0" cx="70.9" cy="47.4" r="30.8"/>
<circle class="st1" cx="134.9" cy="48.1" r="30.8"/>
<circle class="st2" cx="70.9" cy="159.5" r="30.8"/>
<circle class="st3" cx="134.9" cy="160.2" r="30.8"/>
<circle class="st4" cx="40.1" cy="102.6" r="30.8"/>
<circle class="st5" cx="166.3" cy="102.6" r="30.8"/>
<g class="st6">
	<path class="st7" d="M122.6,146.8c-0.4,0-0.7,0.2-1,0.5s-0.3,0.8-0.3,1.3c0,1.2,0.4,1.8,1.3,1.8c0.4,0,0.8-0.1,1.3-0.3v0.9
		c-0.4,0.2-0.9,0.3-1.5,0.3c-0.8,0-1.4-0.2-1.8-0.7c-0.4-0.5-0.6-1.1-0.6-2c0-0.5,0.1-1,0.3-1.4s0.5-0.7,0.9-1s0.8-0.3,1.3-0.3
		c0.5,0,1,0.1,1.5,0.4l-0.4,0.9c-0.2-0.1-0.4-0.2-0.6-0.2S122.8,146.8,122.6,146.8z"/>
	<path class="st7" d="M128.7,149.2c0,0.7-0.2,1.2-0.5,1.5c-0.3,0.4-0.8,0.6-1.5,0.6c-0.4,0-0.7-0.1-1-0.3s-0.5-0.4-0.7-0.7
		s-0.2-0.7-0.2-1.1c0-0.7,0.2-1.2,0.5-1.5c0.3-0.4,0.8-0.5,1.5-0.5c0.4,0,0.7,0.1,1,0.3c0.3,0.2,0.5,0.4,0.7,0.7
		S128.7,148.8,128.7,149.2z M125.9,149.2c0,0.4,0.1,0.7,0.2,0.9c0.1,0.2,0.3,0.3,0.6,0.3c0.3,0,0.5-0.1,0.6-0.3
		c0.1-0.2,0.2-0.5,0.2-0.9c0-0.4-0.1-0.7-0.2-0.9c-0.1-0.2-0.3-0.3-0.6-0.3c-0.3,0-0.5,0.1-0.6,0.3
		C125.9,148.5,125.9,148.8,125.9,149.2z"/>
	<path class="st7" d="M133.3,151.2h-1.1v-2.4c0-0.3-0.1-0.5-0.2-0.7s-0.3-0.2-0.5-0.2c-0.3,0-0.5,0.1-0.7,0.3
		c-0.1,0.2-0.2,0.5-0.2,1v1.9h-1.1v-4h0.8l0.1,0.5h0.1c0.1-0.2,0.3-0.3,0.5-0.4c0.2-0.1,0.5-0.2,0.7-0.2c0.5,0,0.8,0.1,1.1,0.4
		c0.2,0.3,0.4,0.6,0.4,1.1V151.2z"/>
	<path class="st7" d="M138.2,151.2h-1.1v-2.4c0-0.3-0.1-0.5-0.2-0.7s-0.3-0.2-0.5-0.2c-0.3,0-0.5,0.1-0.7,0.3
		c-0.1,0.2-0.2,0.5-0.2,1v1.9h-1.1v-4h0.8l0.1,0.5h0.1c0.1-0.2,0.3-0.3,0.5-0.4c0.2-0.1,0.5-0.2,0.7-0.2c0.5,0,0.8,0.1,1.1,0.4
		c0.2,0.3,0.4,0.6,0.4,1.1V151.2z"/>
	<path class="st7" d="M141.1,151.3c-0.7,0-1.2-0.2-1.5-0.5c-0.4-0.4-0.5-0.9-0.5-1.5c0-0.7,0.2-1.2,0.5-1.6c0.3-0.4,0.8-0.6,1.4-0.6
		c0.6,0,1,0.2,1.3,0.5s0.5,0.8,0.5,1.3v0.5h-2.6c0,0.3,0.1,0.6,0.3,0.7s0.4,0.3,0.7,0.3c0.2,0,0.5,0,0.7-0.1
		c0.2-0.1,0.4-0.1,0.7-0.2v0.9c-0.2,0.1-0.4,0.2-0.6,0.2C141.7,151.3,141.5,151.3,141.1,151.3z M141,147.9c-0.2,0-0.4,0.1-0.5,0.2
		s-0.2,0.4-0.2,0.6h1.5c0-0.3-0.1-0.5-0.2-0.6S141.2,147.9,141,147.9z"/>
	<path class="st7" d="M145.3,151.3c-1.3,0-1.9-0.7-1.9-2.1c0-0.7,0.2-1.2,0.5-1.6c0.3-0.4,0.8-0.5,1.5-0.5c0.5,0,0.9,0.1,1.3,0.3
		l-0.3,0.9c-0.2-0.1-0.3-0.1-0.5-0.2c-0.2,0-0.3-0.1-0.4-0.1c-0.6,0-0.9,0.4-0.9,1.2c0,0.8,0.3,1.2,0.9,1.2c0.2,0,0.4,0,0.6-0.1
		s0.4-0.1,0.5-0.3v0.9c-0.2,0.1-0.4,0.2-0.5,0.2C145.8,151.3,145.6,151.3,145.3,151.3z"/>
	<path class="st7" d="M149.2,150.4c0.2,0,0.4,0,0.7-0.1v0.8c-0.3,0.1-0.6,0.2-1,0.2c-0.4,0-0.8-0.1-1-0.3c-0.2-0.2-0.3-0.6-0.3-1
		V148h-0.5v-0.5l0.6-0.4l0.3-0.9h0.7v0.9h1.1v0.8h-1.1v1.9c0,0.2,0,0.3,0.1,0.3C148.9,150.4,149.1,150.4,149.2,150.4z"/>
</g>
<g class="st6">
	<path class="st7" d="M115.4,156.3c0,0.8-0.2,1.4-0.6,1.8c-0.4,0.4-1,0.6-1.8,0.6h-1.3V154h1.5c0.7,0,1.3,0.2,1.7,0.6
		C115.2,155,115.4,155.6,115.4,156.3z M114.8,156.3c0-0.6-0.2-1.1-0.5-1.4s-0.8-0.5-1.4-0.5h-0.8v3.8h0.7c0.7,0,1.2-0.2,1.5-0.5
		C114.6,157.5,114.8,157,114.8,156.3z"/>
	<path class="st7" d="M116.3,154.2c0-0.1,0-0.2,0.1-0.3s0.1-0.1,0.2-0.1c0.1,0,0.2,0,0.2,0.1c0.1,0.1,0.1,0.1,0.1,0.3
		c0,0.1,0,0.2-0.1,0.3c-0.1,0.1-0.1,0.1-0.2,0.1c-0.1,0-0.2,0-0.2-0.1S116.3,154.3,116.3,154.2z M116.9,158.7h-0.5v-3.6h0.5V158.7z"
		/>
	<path class="st7" d="M121,155.2v0.3l-0.7,0.1c0.1,0.1,0.1,0.2,0.2,0.3c0,0.1,0.1,0.3,0.1,0.4c0,0.3-0.1,0.6-0.4,0.8
		c-0.2,0.2-0.6,0.3-1,0.3c-0.1,0-0.2,0-0.3,0c-0.2,0.1-0.3,0.3-0.3,0.5c0,0.1,0,0.2,0.1,0.2c0.1,0,0.2,0.1,0.4,0.1h0.6
		c0.4,0,0.7,0.1,0.9,0.2s0.3,0.4,0.3,0.7c0,0.4-0.2,0.7-0.5,0.9c-0.3,0.2-0.8,0.3-1.4,0.3c-0.5,0-0.8-0.1-1.1-0.3s-0.4-0.4-0.4-0.7
		c0-0.2,0.1-0.4,0.2-0.6c0.1-0.2,0.3-0.3,0.6-0.3c-0.1,0-0.2-0.1-0.2-0.2c-0.1-0.1-0.1-0.2-0.1-0.3c0-0.1,0-0.2,0.1-0.3
		s0.2-0.2,0.3-0.3c-0.2-0.1-0.3-0.2-0.5-0.4s-0.2-0.4-0.2-0.6c0-0.4,0.1-0.7,0.4-0.9c0.2-0.2,0.6-0.3,1-0.3c0.2,0,0.4,0,0.5,0.1H121
		z M118.1,159.3c0,0.2,0.1,0.3,0.2,0.4c0.2,0.1,0.4,0.1,0.7,0.1c0.5,0,0.8-0.1,1-0.2c0.2-0.1,0.3-0.3,0.3-0.6c0-0.2-0.1-0.3-0.2-0.4
		c-0.1-0.1-0.3-0.1-0.7-0.1h-0.6c-0.2,0-0.4,0.1-0.6,0.2C118.2,159,118.1,159.1,118.1,159.3z M118.4,156.3c0,0.3,0.1,0.4,0.2,0.6
		c0.1,0.1,0.3,0.2,0.6,0.2c0.5,0,0.8-0.3,0.8-0.8c0-0.5-0.3-0.8-0.8-0.8c-0.3,0-0.4,0.1-0.6,0.2S118.4,156,118.4,156.3z"/>
	<path class="st7" d="M121.6,154.2c0-0.1,0-0.2,0.1-0.3c0.1-0.1,0.1-0.1,0.2-0.1c0.1,0,0.2,0,0.2,0.1c0.1,0.1,0.1,0.1,0.1,0.3
		c0,0.1,0,0.2-0.1,0.3c-0.1,0.1-0.1,0.1-0.2,0.1c-0.1,0-0.2,0-0.2-0.1C121.7,154.4,121.6,154.3,121.6,154.2z M122.2,158.7h-0.5v-3.6
		h0.5V158.7z"/>
	<path class="st7" d="M124.5,158.4c0.1,0,0.2,0,0.3,0c0.1,0,0.2,0,0.2,0v0.4c-0.1,0-0.1,0.1-0.3,0.1s-0.2,0-0.3,0
		c-0.7,0-1-0.4-1-1.1v-2.1h-0.5v-0.3l0.5-0.2l0.2-0.8h0.3v0.8h1v0.4h-1v2.1c0,0.2,0.1,0.4,0.2,0.5
		C124.2,158.3,124.4,158.4,124.5,158.4z"/>
	<path class="st7" d="M127.9,158.7l-0.1-0.5h0c-0.2,0.2-0.4,0.4-0.5,0.5s-0.4,0.1-0.7,0.1c-0.4,0-0.6-0.1-0.8-0.3
		c-0.2-0.2-0.3-0.4-0.3-0.8c0-0.7,0.6-1.1,1.7-1.1l0.6,0v-0.2c0-0.3-0.1-0.5-0.2-0.6c-0.1-0.1-0.3-0.2-0.6-0.2c-0.3,0-0.6,0.1-1,0.3
		l-0.2-0.4c0.2-0.1,0.4-0.2,0.6-0.2c0.2-0.1,0.4-0.1,0.6-0.1c0.4,0,0.7,0.1,0.9,0.3s0.3,0.5,0.3,0.9v2.4H127.9z M126.7,158.4
		c0.3,0,0.6-0.1,0.8-0.3c0.2-0.2,0.3-0.4,0.3-0.8V157l-0.5,0c-0.4,0-0.7,0.1-0.9,0.2c-0.2,0.1-0.3,0.3-0.3,0.6
		c0,0.2,0.1,0.3,0.2,0.4C126.3,158.3,126.5,158.4,126.7,158.4z"/>
	<path class="st7" d="M130,158.7h-0.5v-5.1h0.5V158.7z"/>
	<path class="st7" d="M135.2,157.8c0,0.3-0.1,0.6-0.4,0.8c-0.2,0.2-0.6,0.3-1,0.3c-0.5,0-0.8-0.1-1.1-0.2v-0.5
		c0.2,0.1,0.4,0.2,0.6,0.2c0.2,0,0.4,0.1,0.6,0.1c0.3,0,0.5,0,0.7-0.1c0.2-0.1,0.2-0.2,0.2-0.4c0-0.1-0.1-0.3-0.2-0.4
		c-0.1-0.1-0.4-0.2-0.7-0.3c-0.3-0.1-0.6-0.2-0.7-0.3c-0.1-0.1-0.2-0.2-0.3-0.3s-0.1-0.3-0.1-0.4c0-0.3,0.1-0.5,0.4-0.7
		c0.2-0.2,0.6-0.3,1-0.3c0.4,0,0.8,0.1,1.1,0.2l-0.2,0.4c-0.4-0.1-0.7-0.2-1-0.2c-0.3,0-0.4,0-0.6,0.1c-0.1,0.1-0.2,0.2-0.2,0.3
		c0,0.1,0,0.2,0.1,0.2c0,0.1,0.1,0.1,0.2,0.2s0.3,0.1,0.6,0.3c0.4,0.2,0.7,0.3,0.9,0.5S135.2,157.5,135.2,157.8z"/>
	<path class="st7" d="M139.1,157c0,0.6-0.1,1-0.4,1.4c-0.3,0.3-0.7,0.5-1.2,0.5c-0.3,0-0.6-0.1-0.8-0.2c-0.2-0.2-0.4-0.4-0.6-0.6
		s-0.2-0.6-0.2-1c0-0.6,0.1-1,0.4-1.4c0.3-0.3,0.7-0.5,1.2-0.5c0.5,0,0.9,0.2,1.2,0.5C139,155.9,139.1,156.4,139.1,157z M136.4,157
		c0,0.5,0.1,0.8,0.3,1c0.2,0.2,0.5,0.4,0.8,0.4c0.4,0,0.6-0.1,0.8-0.4c0.2-0.2,0.3-0.6,0.3-1c0-0.5-0.1-0.8-0.3-1s-0.5-0.4-0.8-0.4
		c-0.4,0-0.6,0.1-0.8,0.3C136.5,156.1,136.4,156.5,136.4,157z"/>
	<path class="st7" d="M140.6,158.7h-0.5v-5.1h0.5V158.7z"/>
	<path class="st7" d="M142.3,155.2v2.3c0,0.3,0.1,0.5,0.2,0.7c0.1,0.1,0.3,0.2,0.6,0.2c0.4,0,0.6-0.1,0.8-0.3s0.3-0.5,0.3-1v-1.9
		h0.5v3.6h-0.4l-0.1-0.5h0c-0.1,0.2-0.3,0.3-0.5,0.4c-0.2,0.1-0.4,0.1-0.7,0.1c-0.4,0-0.8-0.1-1-0.3c-0.2-0.2-0.3-0.5-0.3-1v-2.3
		H142.3z"/>
	<path class="st7" d="M147,158.4c0.1,0,0.2,0,0.3,0c0.1,0,0.2,0,0.2,0v0.4c-0.1,0-0.1,0.1-0.3,0.1c-0.1,0-0.2,0-0.3,0
		c-0.7,0-1-0.4-1-1.1v-2.1h-0.5v-0.3l0.5-0.2l0.2-0.8h0.3v0.8h1v0.4h-1v2.1c0,0.2,0.1,0.4,0.2,0.5
		C146.7,158.3,146.8,158.4,147,158.4z"/>
	<path class="st7" d="M148.2,154.2c0-0.1,0-0.2,0.1-0.3s0.1-0.1,0.2-0.1c0.1,0,0.2,0,0.2,0.1c0.1,0.1,0.1,0.1,0.1,0.3
		c0,0.1,0,0.2-0.1,0.3c-0.1,0.1-0.1,0.1-0.2,0.1c-0.1,0-0.2,0-0.2-0.1S148.2,154.3,148.2,154.2z M148.8,158.7h-0.5v-3.6h0.5V158.7z"
		/>
	<path class="st7" d="M153,157c0,0.6-0.1,1-0.4,1.4c-0.3,0.3-0.7,0.5-1.2,0.5c-0.3,0-0.6-0.1-0.8-0.2c-0.2-0.2-0.4-0.4-0.6-0.6
		s-0.2-0.6-0.2-1c0-0.6,0.1-1,0.4-1.4c0.3-0.3,0.7-0.5,1.2-0.5c0.5,0,0.9,0.2,1.2,0.5C152.8,155.9,153,156.4,153,157z M150.3,157
		c0,0.5,0.1,0.8,0.3,1c0.2,0.2,0.5,0.4,0.8,0.4c0.4,0,0.6-0.1,0.8-0.4c0.2-0.2,0.3-0.6,0.3-1c0-0.5-0.1-0.8-0.3-1s-0.5-0.4-0.8-0.4
		c-0.4,0-0.6,0.1-0.8,0.3C150.3,156.1,150.3,156.5,150.3,157z"/>
	<path class="st7" d="M156.4,158.7v-2.3c0-0.3-0.1-0.5-0.2-0.7c-0.1-0.1-0.3-0.2-0.6-0.2c-0.4,0-0.6,0.1-0.8,0.3
		c-0.2,0.2-0.3,0.5-0.3,1v1.9h-0.5v-3.6h0.4l0.1,0.5h0c0.1-0.2,0.3-0.3,0.5-0.4s0.4-0.1,0.7-0.1c0.4,0,0.8,0.1,1,0.3
		c0.2,0.2,0.3,0.5,0.3,1v2.3H156.4z"/>
	<path class="st7" d="M160.3,157.8c0,0.3-0.1,0.6-0.4,0.8c-0.2,0.2-0.6,0.3-1,0.3c-0.5,0-0.8-0.1-1.1-0.2v-0.5
		c0.2,0.1,0.4,0.2,0.6,0.2s0.4,0.1,0.6,0.1c0.3,0,0.5,0,0.7-0.1c0.2-0.1,0.2-0.2,0.2-0.4c0-0.1-0.1-0.3-0.2-0.4
		c-0.1-0.1-0.4-0.2-0.7-0.3c-0.3-0.1-0.6-0.2-0.7-0.3c-0.1-0.1-0.2-0.2-0.3-0.3s-0.1-0.3-0.1-0.4c0-0.3,0.1-0.5,0.4-0.7
		c0.2-0.2,0.6-0.3,1-0.3c0.4,0,0.8,0.1,1.1,0.2l-0.2,0.4c-0.4-0.1-0.7-0.2-1-0.2c-0.3,0-0.4,0-0.6,0.1c-0.1,0.1-0.2,0.2-0.2,0.3
		c0,0.1,0,0.2,0.1,0.2c0,0.1,0.1,0.1,0.2,0.2c0.1,0.1,0.3,0.1,0.6,0.3c0.4,0.2,0.7,0.3,0.9,0.5C160.2,157.3,160.3,157.5,160.3,157.8
		z"/>
</g>
<g class="st6">
	<path class="st7" d="M116.4,163.1h-0.9v3.1h-0.5v-3.1h-0.6v-0.2l0.6-0.2v-0.2c0-0.9,0.4-1.3,1.1-1.3c0.2,0,0.4,0,0.7,0.1l-0.1,0.4
		c-0.2-0.1-0.4-0.1-0.5-0.1c-0.2,0-0.4,0.1-0.5,0.2s-0.1,0.4-0.1,0.7v0.2h0.9V163.1z"/>
	<path class="st7" d="M120.1,164.5c0,0.6-0.1,1-0.4,1.4c-0.3,0.3-0.7,0.5-1.2,0.5c-0.3,0-0.6-0.1-0.8-0.2c-0.2-0.2-0.4-0.4-0.6-0.6
		s-0.2-0.6-0.2-1c0-0.6,0.1-1,0.4-1.4c0.3-0.3,0.7-0.5,1.2-0.5c0.5,0,0.9,0.2,1.2,0.5C120,163.4,120.1,163.9,120.1,164.5z
		 M117.4,164.5c0,0.5,0.1,0.8,0.3,1c0.2,0.2,0.5,0.4,0.8,0.4c0.4,0,0.6-0.1,0.8-0.4c0.2-0.2,0.3-0.6,0.3-1c0-0.5-0.1-0.8-0.3-1
		s-0.5-0.4-0.8-0.4c-0.4,0-0.6,0.1-0.8,0.3C117.5,163.7,117.4,164,117.4,164.5z"/>
	<path class="st7" d="M122.7,162.6c0.2,0,0.3,0,0.4,0l-0.1,0.5c-0.1,0-0.3,0-0.4,0c-0.3,0-0.5,0.1-0.7,0.4s-0.3,0.5-0.3,0.9v1.9
		h-0.5v-3.6h0.4l0.1,0.7h0c0.1-0.2,0.3-0.4,0.5-0.5C122.3,162.7,122.5,162.6,122.7,162.6z"/>
	<path class="st7" d="M126.7,165.9c0.1,0,0.2,0,0.3,0c0.1,0,0.2,0,0.2,0v0.4c-0.1,0-0.1,0.1-0.3,0.1s-0.2,0-0.3,0
		c-0.7,0-1-0.4-1-1.1v-2.1h-0.5v-0.3l0.5-0.2l0.2-0.8h0.3v0.8h1v0.4h-1v2.1c0,0.2,0.1,0.4,0.2,0.5
		C126.4,165.8,126.5,165.9,126.7,165.9z"/>
	<path class="st7" d="M129.5,162.6c0.2,0,0.3,0,0.4,0l-0.1,0.5c-0.1,0-0.3,0-0.4,0c-0.3,0-0.5,0.1-0.7,0.4c-0.2,0.2-0.3,0.5-0.3,0.9
		v1.9h-0.5v-3.6h0.4l0.1,0.7h0c0.1-0.2,0.3-0.4,0.5-0.5S129.3,162.6,129.5,162.6z"/>
	<path class="st7" d="M132.8,166.3l-0.1-0.5h0c-0.2,0.2-0.4,0.4-0.5,0.5c-0.2,0.1-0.4,0.1-0.7,0.1c-0.4,0-0.6-0.1-0.8-0.3
		c-0.2-0.2-0.3-0.4-0.3-0.8c0-0.7,0.6-1.1,1.7-1.1l0.6,0v-0.2c0-0.3-0.1-0.5-0.2-0.6c-0.1-0.1-0.3-0.2-0.6-0.2c-0.3,0-0.6,0.1-1,0.3
		l-0.2-0.4c0.2-0.1,0.4-0.2,0.6-0.2c0.2-0.1,0.4-0.1,0.6-0.1c0.4,0,0.7,0.1,0.9,0.3c0.2,0.2,0.3,0.5,0.3,0.9v2.4H132.8z
		 M131.6,165.9c0.3,0,0.6-0.1,0.8-0.3s0.3-0.4,0.3-0.8v-0.3l-0.5,0c-0.4,0-0.7,0.1-0.9,0.2c-0.2,0.1-0.3,0.3-0.3,0.6
		c0,0.2,0.1,0.3,0.2,0.4C131.2,165.8,131.4,165.9,131.6,165.9z"/>
	<path class="st7" d="M135.7,166.3c-0.5,0-0.9-0.2-1.2-0.5s-0.4-0.8-0.4-1.3c0-0.6,0.1-1.1,0.4-1.4c0.3-0.3,0.7-0.5,1.2-0.5
		c0.2,0,0.3,0,0.5,0.1c0.2,0,0.3,0.1,0.4,0.1l-0.2,0.5c-0.1,0-0.3-0.1-0.4-0.1c-0.1,0-0.3,0-0.4,0c-0.7,0-1.1,0.5-1.1,1.4
		c0,0.4,0.1,0.8,0.3,1s0.4,0.4,0.8,0.4c0.3,0,0.6-0.1,0.9-0.2v0.5C136.4,166.3,136.1,166.3,135.7,166.3z"/>
	<path class="st7" d="M139,166.3c-0.5,0-0.9-0.2-1.2-0.5c-0.3-0.3-0.5-0.8-0.5-1.3c0-0.6,0.1-1,0.4-1.4c0.3-0.3,0.7-0.5,1.1-0.5
		c0.4,0,0.8,0.1,1.1,0.4c0.3,0.3,0.4,0.7,0.4,1.2v0.3h-2.5c0,0.4,0.1,0.7,0.3,1c0.2,0.2,0.5,0.3,0.8,0.3c0.4,0,0.8-0.1,1.1-0.2v0.5
		c-0.2,0.1-0.4,0.1-0.5,0.2C139.4,166.3,139.2,166.3,139,166.3z M138.9,163.1c-0.3,0-0.5,0.1-0.7,0.3c-0.2,0.2-0.3,0.4-0.3,0.8h1.9
		c0-0.3-0.1-0.6-0.2-0.8C139.4,163.2,139.1,163.1,138.9,163.1z"/>
	<path class="st7" d="M143.4,166.3l-0.1-0.5h0c-0.2,0.2-0.4,0.4-0.5,0.5c-0.2,0.1-0.4,0.1-0.7,0.1c-0.4,0-0.6-0.1-0.8-0.3
		c-0.2-0.2-0.3-0.4-0.3-0.8c0-0.7,0.6-1.1,1.7-1.1l0.6,0v-0.2c0-0.3-0.1-0.5-0.2-0.6c-0.1-0.1-0.3-0.2-0.6-0.2c-0.3,0-0.6,0.1-1,0.3
		l-0.2-0.4c0.2-0.1,0.4-0.2,0.6-0.2c0.2-0.1,0.4-0.1,0.6-0.1c0.4,0,0.7,0.1,0.9,0.3c0.2,0.2,0.3,0.5,0.3,0.9v2.4H143.4z
		 M142.2,165.9c0.3,0,0.6-0.1,0.8-0.3s0.3-0.4,0.3-0.8v-0.3l-0.5,0c-0.4,0-0.7,0.1-0.9,0.2c-0.2,0.1-0.3,0.3-0.3,0.6
		c0,0.2,0.1,0.3,0.2,0.4C141.8,165.8,142,165.9,142.2,165.9z"/>
	<path class="st7" d="M146.6,162.6c0.5,0,0.8,0.2,1.1,0.5s0.4,0.8,0.4,1.4s-0.1,1-0.4,1.4c-0.3,0.3-0.6,0.5-1.1,0.5
		c-0.2,0-0.4,0-0.6-0.1s-0.4-0.2-0.5-0.4h0l-0.1,0.5h-0.4v-5.1h0.5v1.2c0,0.3,0,0.5,0,0.7h0C145.7,162.8,146.1,162.6,146.6,162.6z
		 M146.5,163.1c-0.4,0-0.6,0.1-0.8,0.3c-0.2,0.2-0.2,0.6-0.2,1.1s0.1,0.9,0.3,1.1c0.2,0.2,0.4,0.3,0.8,0.3c0.3,0,0.6-0.1,0.7-0.4
		c0.2-0.2,0.2-0.6,0.2-1c0-0.5-0.1-0.8-0.2-1C147.1,163.2,146.9,163.1,146.5,163.1z"/>
	<path class="st7" d="M149.6,166.3H149v-5.1h0.5V166.3z"/>
	<path class="st7" d="M152.2,166.3c-0.5,0-0.9-0.2-1.2-0.5c-0.3-0.3-0.5-0.8-0.5-1.3c0-0.6,0.1-1,0.4-1.4c0.3-0.3,0.7-0.5,1.1-0.5
		c0.4,0,0.8,0.1,1.1,0.4s0.4,0.7,0.4,1.2v0.3h-2.5c0,0.4,0.1,0.7,0.3,1c0.2,0.2,0.5,0.3,0.8,0.3c0.4,0,0.8-0.1,1.1-0.2v0.5
		c-0.2,0.1-0.4,0.1-0.5,0.2C152.7,166.3,152.5,166.3,152.2,166.3z M152.1,163.1c-0.3,0-0.5,0.1-0.7,0.3c-0.2,0.2-0.3,0.4-0.3,0.8
		h1.9c0-0.3-0.1-0.6-0.2-0.8C152.6,163.2,152.4,163.1,152.1,163.1z"/>
</g>
<g class="st6">
	<path class="st7" d="M116.7,172.8c0,0.3-0.1,0.6-0.4,0.8c-0.2,0.2-0.6,0.3-1,0.3c-0.5,0-0.8-0.1-1.1-0.2v-0.5
		c0.2,0.1,0.4,0.2,0.6,0.2c0.2,0,0.4,0.1,0.6,0.1c0.3,0,0.5,0,0.7-0.1c0.2-0.1,0.2-0.2,0.2-0.4c0-0.1-0.1-0.3-0.2-0.4
		c-0.1-0.1-0.4-0.2-0.7-0.3c-0.3-0.1-0.6-0.2-0.7-0.3c-0.1-0.1-0.2-0.2-0.3-0.3s-0.1-0.3-0.1-0.4c0-0.3,0.1-0.5,0.4-0.7
		c0.2-0.2,0.6-0.3,1-0.3c0.4,0,0.8,0.1,1.1,0.2l-0.2,0.4c-0.4-0.1-0.7-0.2-1-0.2c-0.3,0-0.4,0-0.6,0.1c-0.1,0.1-0.2,0.2-0.2,0.3
		c0,0.1,0,0.2,0.1,0.2s0.1,0.1,0.2,0.2s0.3,0.1,0.6,0.3c0.4,0.2,0.7,0.3,0.9,0.5S116.7,172.6,116.7,172.8z"/>
	<path class="st7" d="M118.1,170.2v2.3c0,0.3,0.1,0.5,0.2,0.7c0.1,0.1,0.3,0.2,0.6,0.2c0.4,0,0.6-0.1,0.8-0.3c0.2-0.2,0.3-0.5,0.3-1
		v-1.9h0.5v3.6h-0.4l-0.1-0.5h0c-0.1,0.2-0.3,0.3-0.5,0.4c-0.2,0.1-0.4,0.1-0.7,0.1c-0.4,0-0.8-0.1-1-0.3c-0.2-0.2-0.3-0.5-0.3-1
		v-2.3H118.1z"/>
	<path class="st7" d="M123.3,173.8c-0.2,0-0.4,0-0.6-0.1s-0.4-0.2-0.5-0.4h0c0,0.2,0,0.4,0,0.6v1.5h-0.5v-5.2h0.4l0.1,0.5h0
		c0.1-0.2,0.3-0.3,0.5-0.4s0.4-0.1,0.6-0.1c0.5,0,0.8,0.2,1.1,0.5c0.3,0.3,0.4,0.8,0.4,1.4c0,0.6-0.1,1-0.4,1.4
		C124.2,173.7,123.8,173.8,123.3,173.8z M123.3,170.6c-0.4,0-0.6,0.1-0.8,0.3c-0.2,0.2-0.2,0.5-0.3,1v0.1c0,0.5,0.1,0.9,0.3,1.1
		c0.2,0.2,0.4,0.3,0.8,0.3c0.3,0,0.5-0.1,0.7-0.4s0.3-0.6,0.3-1c0-0.4-0.1-0.8-0.3-1S123.6,170.6,123.3,170.6z"/>
	<path class="st7" d="M127.4,173.8c-0.2,0-0.4,0-0.6-0.1c-0.2-0.1-0.4-0.2-0.5-0.4h0c0,0.2,0,0.4,0,0.6v1.5h-0.5v-5.2h0.4l0.1,0.5h0
		c0.1-0.2,0.3-0.3,0.5-0.4s0.4-0.1,0.6-0.1c0.5,0,0.8,0.2,1.1,0.5c0.3,0.3,0.4,0.8,0.4,1.4c0,0.6-0.1,1-0.4,1.4
		C128.2,173.7,127.9,173.8,127.4,173.8z M127.3,170.6c-0.4,0-0.6,0.1-0.8,0.3c-0.2,0.2-0.2,0.5-0.3,1v0.1c0,0.5,0.1,0.9,0.3,1.1
		s0.4,0.3,0.8,0.3c0.3,0,0.5-0.1,0.7-0.4s0.3-0.6,0.3-1c0-0.4-0.1-0.8-0.3-1S127.7,170.6,127.3,170.6z"/>
	<path class="st7" d="M130.4,173.8h-0.5v-5.1h0.5V173.8z"/>
	<path class="st7" d="M131,170.2h0.6l0.8,2c0.2,0.5,0.3,0.8,0.3,1h0c0-0.1,0.1-0.3,0.2-0.6s0.4-1.1,0.9-2.5h0.6l-1.5,4.1
		c-0.2,0.4-0.3,0.7-0.5,0.9c-0.2,0.2-0.5,0.3-0.7,0.3c-0.2,0-0.3,0-0.5-0.1v-0.4c0.1,0,0.3,0,0.4,0c0.4,0,0.6-0.2,0.8-0.6l0.2-0.5
		L131,170.2z"/>
	<path class="st7" d="M138.1,173.8c-0.5,0-0.9-0.2-1.2-0.5s-0.4-0.8-0.4-1.3c0-0.6,0.1-1.1,0.4-1.4c0.3-0.3,0.7-0.5,1.2-0.5
		c0.2,0,0.3,0,0.5,0.1c0.2,0,0.3,0.1,0.4,0.1l-0.2,0.5c-0.1,0-0.3-0.1-0.4-0.1c-0.1,0-0.3,0-0.4,0c-0.7,0-1.1,0.5-1.1,1.4
		c0,0.4,0.1,0.8,0.3,1s0.4,0.4,0.8,0.4c0.3,0,0.6-0.1,0.9-0.2v0.5C138.7,173.8,138.4,173.8,138.1,173.8z"/>
	<path class="st7" d="M142.2,173.8v-2.3c0-0.3-0.1-0.5-0.2-0.7c-0.1-0.1-0.3-0.2-0.6-0.2c-0.4,0-0.6,0.1-0.8,0.3
		c-0.2,0.2-0.3,0.5-0.3,1v1.9h-0.5v-5.1h0.5v1.5c0,0.2,0,0.3,0,0.5h0c0.1-0.2,0.3-0.3,0.5-0.4c0.2-0.1,0.4-0.1,0.7-0.1
		c0.4,0,0.8,0.1,1,0.3c0.2,0.2,0.3,0.5,0.3,1v2.3H142.2z"/>
	<path class="st7" d="M146.1,173.8l-0.1-0.5h0c-0.2,0.2-0.4,0.4-0.5,0.5c-0.2,0.1-0.4,0.1-0.7,0.1c-0.4,0-0.6-0.1-0.8-0.3
		c-0.2-0.2-0.3-0.4-0.3-0.8c0-0.7,0.6-1.1,1.7-1.1l0.6,0v-0.2c0-0.3-0.1-0.5-0.2-0.6c-0.1-0.1-0.3-0.2-0.6-0.2c-0.3,0-0.6,0.1-1,0.3
		l-0.2-0.4c0.2-0.1,0.4-0.2,0.6-0.2c0.2-0.1,0.4-0.1,0.6-0.1c0.4,0,0.7,0.1,0.9,0.3c0.2,0.2,0.3,0.5,0.3,0.9v2.4H146.1z
		 M144.9,173.4c0.3,0,0.6-0.1,0.8-0.3c0.2-0.2,0.3-0.4,0.3-0.8V172l-0.5,0c-0.4,0-0.7,0.1-0.9,0.2c-0.2,0.1-0.3,0.3-0.3,0.6
		c0,0.2,0.1,0.3,0.2,0.4S144.7,173.4,144.9,173.4z"/>
	<path class="st7" d="M147.6,169.2c0-0.1,0-0.2,0.1-0.3c0.1-0.1,0.1-0.1,0.2-0.1c0.1,0,0.2,0,0.2,0.1c0.1,0.1,0.1,0.1,0.1,0.3
		c0,0.1,0,0.2-0.1,0.3c-0.1,0.1-0.1,0.1-0.2,0.1c-0.1,0-0.2,0-0.2-0.1C147.6,169.4,147.6,169.4,147.6,169.2z M148.1,173.8h-0.5v-3.6
		h0.5V173.8z"/>
	<path class="st7" d="M151.7,173.8v-2.3c0-0.3-0.1-0.5-0.2-0.7c-0.1-0.1-0.3-0.2-0.6-0.2c-0.4,0-0.6,0.1-0.8,0.3
		c-0.2,0.2-0.3,0.5-0.3,1v1.9h-0.5v-3.6h0.4l0.1,0.5h0c0.1-0.2,0.3-0.3,0.5-0.4c0.2-0.1,0.4-0.1,0.7-0.1c0.4,0,0.8,0.1,1,0.3
		c0.2,0.2,0.3,0.5,0.3,1v2.3H151.7z"/>
	<path class="st7" d="M155.7,172.8c0,0.3-0.1,0.6-0.4,0.8c-0.2,0.2-0.6,0.3-1,0.3c-0.5,0-0.8-0.1-1.1-0.2v-0.5
		c0.2,0.1,0.4,0.2,0.6,0.2c0.2,0,0.4,0.1,0.6,0.1c0.3,0,0.5,0,0.7-0.1s0.2-0.2,0.2-0.4c0-0.1-0.1-0.3-0.2-0.4
		c-0.1-0.1-0.4-0.2-0.7-0.3c-0.3-0.1-0.6-0.2-0.7-0.3c-0.1-0.1-0.2-0.2-0.3-0.3s-0.1-0.3-0.1-0.4c0-0.3,0.1-0.5,0.4-0.7
		c0.2-0.2,0.6-0.3,1-0.3c0.4,0,0.8,0.1,1.1,0.2l-0.2,0.4c-0.4-0.1-0.7-0.2-1-0.2c-0.3,0-0.4,0-0.6,0.1c-0.1,0.1-0.2,0.2-0.2,0.3
		c0,0.1,0,0.2,0.1,0.2s0.1,0.1,0.2,0.2c0.1,0.1,0.3,0.1,0.6,0.3c0.4,0.2,0.7,0.3,0.9,0.5C155.6,172.4,155.7,172.6,155.7,172.8z"/>
</g>
<g class="st6">
	<path class="st7" d="M153.3,89.2c-0.4,0-0.7,0.2-1,0.5c-0.2,0.3-0.3,0.8-0.3,1.3c0,1.2,0.4,1.8,1.3,1.8c0.4,0,0.8-0.1,1.3-0.3v0.9
		c-0.4,0.2-0.9,0.3-1.5,0.3c-0.8,0-1.4-0.2-1.8-0.7c-0.4-0.5-0.6-1.1-0.6-2c0-0.5,0.1-1,0.3-1.4s0.5-0.7,0.9-1s0.8-0.3,1.3-0.3
		c0.5,0,1,0.1,1.5,0.4l-0.4,0.9c-0.2-0.1-0.4-0.2-0.6-0.2C153.6,89.2,153.4,89.2,153.3,89.2z"/>
	<path class="st7" d="M158.2,93.6l-0.2-0.5h0c-0.2,0.2-0.4,0.4-0.6,0.5c-0.2,0.1-0.5,0.1-0.8,0.1c-0.4,0-0.7-0.1-0.9-0.3
		c-0.2-0.2-0.3-0.5-0.3-0.9c0-0.4,0.2-0.7,0.5-1c0.3-0.2,0.8-0.3,1.4-0.3l0.7,0v-0.2c0-0.4-0.2-0.6-0.6-0.6c-0.3,0-0.7,0.1-1.1,0.3
		l-0.4-0.7c0.5-0.2,1-0.4,1.5-0.4c0.5,0,1,0.1,1.2,0.4c0.3,0.2,0.4,0.6,0.4,1.1v2.7H158.2z M157.9,91.8l-0.4,0
		c-0.3,0-0.6,0.1-0.7,0.2c-0.2,0.1-0.2,0.3-0.2,0.5c0,0.3,0.2,0.5,0.5,0.5c0.3,0,0.5-0.1,0.6-0.2s0.2-0.3,0.2-0.6V91.8z"/>
	<path class="st7" d="M162.3,93.7c-0.5,0-0.8-0.2-1.1-0.5h-0.1c0,0.3,0.1,0.5,0.1,0.6v1.6h-1.1v-5.8h0.9l0.2,0.5h0.1
		c0.3-0.4,0.6-0.6,1.1-0.6c0.5,0,0.9,0.2,1.1,0.6s0.4,0.9,0.4,1.5c0,0.4-0.1,0.8-0.2,1.1c-0.1,0.3-0.3,0.6-0.5,0.7
		C162.9,93.6,162.7,93.7,162.3,93.7z M162,90.4c-0.3,0-0.5,0.1-0.6,0.3c-0.1,0.2-0.2,0.4-0.2,0.8v0.1c0,0.4,0.1,0.7,0.2,0.9
		s0.3,0.3,0.6,0.3c0.5,0,0.7-0.4,0.7-1.2c0-0.4-0.1-0.7-0.2-0.9C162.5,90.5,162.3,90.4,162,90.4z"/>
	<path class="st7" d="M167.4,93.6l-0.2-0.5h0c-0.2,0.2-0.4,0.4-0.6,0.5c-0.2,0.1-0.5,0.1-0.8,0.1c-0.4,0-0.7-0.1-0.9-0.3
		c-0.2-0.2-0.3-0.5-0.3-0.9c0-0.4,0.2-0.7,0.5-1c0.3-0.2,0.8-0.3,1.4-0.3l0.7,0v-0.2c0-0.4-0.2-0.6-0.6-0.6c-0.3,0-0.7,0.1-1.1,0.3
		l-0.4-0.7c0.5-0.2,1-0.4,1.5-0.4c0.5,0,1,0.1,1.2,0.4c0.3,0.2,0.4,0.6,0.4,1.1v2.7H167.4z M167,91.8l-0.4,0c-0.3,0-0.6,0.1-0.7,0.2
		c-0.2,0.1-0.2,0.3-0.2,0.5c0,0.3,0.2,0.5,0.5,0.5c0.3,0,0.5-0.1,0.6-0.2s0.2-0.3,0.2-0.6V91.8z"/>
	<path class="st7" d="M170.9,93.7c-1.3,0-1.9-0.7-1.9-2.1c0-0.7,0.2-1.2,0.5-1.6c0.3-0.4,0.8-0.5,1.5-0.5c0.5,0,0.9,0.1,1.3,0.3
		l-0.3,0.9c-0.2-0.1-0.3-0.1-0.5-0.2c-0.2,0-0.3-0.1-0.4-0.1c-0.6,0-0.9,0.4-0.9,1.2c0,0.8,0.3,1.2,0.9,1.2c0.2,0,0.4,0,0.6-0.1
		s0.4-0.1,0.5-0.3v0.9c-0.2,0.1-0.4,0.2-0.5,0.2C171.4,93.7,171.2,93.7,170.9,93.7z"/>
	<path class="st7" d="M173,88.5c0-0.4,0.2-0.5,0.6-0.5s0.6,0.2,0.6,0.5c0,0.2,0,0.3-0.2,0.4c-0.1,0.1-0.3,0.1-0.5,0.1
		C173.2,89.1,173,88.9,173,88.5z M174.2,93.6h-1.1v-4h1.1V93.6z"/>
	<path class="st7" d="M177.1,92.8c0.2,0,0.4,0,0.7-0.1v0.8c-0.3,0.1-0.6,0.2-1,0.2c-0.4,0-0.8-0.1-1-0.3c-0.2-0.2-0.3-0.6-0.3-1v-2
		h-0.5V90l0.6-0.4l0.3-0.9h0.7v0.9h1.1v0.8h-1.1v2c0,0.2,0,0.3,0.1,0.3C176.8,92.8,176.9,92.8,177.1,92.8z"/>
	<path class="st7" d="M178,89.6h1.2l0.8,2.3c0.1,0.2,0.1,0.4,0.1,0.7h0c0-0.2,0.1-0.5,0.2-0.7l0.7-2.3h1.2l-1.7,4.6
		c-0.2,0.4-0.4,0.7-0.7,0.9c-0.3,0.2-0.6,0.3-1,0.3c-0.2,0-0.4,0-0.6-0.1v-0.9c0.1,0,0.3,0,0.4,0c0.2,0,0.4-0.1,0.5-0.2
		c0.1-0.1,0.3-0.3,0.3-0.5l0.1-0.2L178,89.6z"/>
</g>
<g class="st6">
	<path class="st7" d="M155.5,101.1l-0.6-1.5H153l-0.6,1.5h-0.6l1.9-4.8h0.5l1.9,4.8H155.5z M154.8,99.1l-0.6-1.5
		c-0.1-0.2-0.1-0.4-0.2-0.7c0,0.2-0.1,0.4-0.2,0.7l-0.6,1.5H154.8z"/>
	<path class="st7" d="M158.1,101.2c-0.5,0-0.9-0.2-1.2-0.5s-0.4-0.8-0.4-1.3c0-0.6,0.1-1.1,0.4-1.4c0.3-0.3,0.7-0.5,1.2-0.5
		c0.2,0,0.3,0,0.5,0.1c0.2,0,0.3,0.1,0.4,0.1l-0.2,0.5c-0.1,0-0.3-0.1-0.4-0.1c-0.1,0-0.3,0-0.4,0c-0.7,0-1.1,0.5-1.1,1.4
		c0,0.4,0.1,0.8,0.3,1s0.4,0.4,0.8,0.4c0.3,0,0.6-0.1,0.9-0.2v0.5C158.8,101.2,158.5,101.2,158.1,101.2z"/>
	<path class="st7" d="M161.3,101.2c-0.5,0-0.9-0.2-1.2-0.5s-0.4-0.8-0.4-1.3c0-0.6,0.1-1.1,0.4-1.4c0.3-0.3,0.7-0.5,1.2-0.5
		c0.2,0,0.3,0,0.5,0.1c0.2,0,0.3,0.1,0.4,0.1l-0.2,0.5c-0.1,0-0.3-0.1-0.4-0.1c-0.1,0-0.3,0-0.4,0c-0.7,0-1.1,0.5-1.1,1.4
		c0,0.4,0.1,0.8,0.3,1s0.4,0.4,0.8,0.4c0.3,0,0.6-0.1,0.9-0.2v0.5C161.9,101.2,161.6,101.2,161.3,101.2z"/>
	<path class="st7" d="M164.5,101.2c-0.5,0-0.9-0.2-1.2-0.5c-0.3-0.3-0.5-0.8-0.5-1.3c0-0.6,0.1-1,0.4-1.4c0.3-0.3,0.7-0.5,1.1-0.5
		c0.4,0,0.8,0.1,1.1,0.4c0.3,0.3,0.4,0.7,0.4,1.2v0.3h-2.5c0,0.4,0.1,0.7,0.3,1c0.2,0.2,0.5,0.3,0.8,0.3c0.4,0,0.8-0.1,1.1-0.2v0.5
		c-0.2,0.1-0.4,0.1-0.5,0.2C165,101.2,164.8,101.2,164.5,101.2z M164.4,98c-0.3,0-0.5,0.1-0.7,0.3c-0.2,0.2-0.3,0.4-0.3,0.8h1.9
		c0-0.3-0.1-0.6-0.2-0.8C164.9,98.1,164.7,98,164.4,98z"/>
	<path class="st7" d="M169.1,100.2c0,0.3-0.1,0.6-0.4,0.8c-0.2,0.2-0.6,0.3-1,0.3c-0.5,0-0.8-0.1-1.1-0.2v-0.5
		c0.2,0.1,0.4,0.2,0.6,0.2c0.2,0,0.4,0.1,0.6,0.1c0.3,0,0.5,0,0.7-0.1c0.2-0.1,0.2-0.2,0.2-0.4c0-0.1-0.1-0.3-0.2-0.4
		c-0.1-0.1-0.4-0.2-0.7-0.3c-0.3-0.1-0.6-0.2-0.7-0.3c-0.1-0.1-0.2-0.2-0.3-0.3s-0.1-0.3-0.1-0.4c0-0.3,0.1-0.5,0.4-0.7
		c0.2-0.2,0.6-0.3,1-0.3c0.4,0,0.8,0.1,1.1,0.2l-0.2,0.4c-0.4-0.1-0.7-0.2-1-0.2c-0.3,0-0.4,0-0.6,0.1c-0.1,0.1-0.2,0.2-0.2,0.3
		c0,0.1,0,0.2,0.1,0.2c0,0.1,0.1,0.1,0.2,0.2s0.3,0.1,0.6,0.3c0.4,0.2,0.7,0.3,0.9,0.5S169.1,99.9,169.1,100.2z"/>
	<path class="st7" d="M172.3,100.2c0,0.3-0.1,0.6-0.4,0.8c-0.2,0.2-0.6,0.3-1,0.3c-0.5,0-0.8-0.1-1.1-0.2v-0.5
		c0.2,0.1,0.4,0.2,0.6,0.2c0.2,0,0.4,0.1,0.6,0.1c0.3,0,0.5,0,0.7-0.1c0.2-0.1,0.2-0.2,0.2-0.4c0-0.1-0.1-0.3-0.2-0.4
		c-0.1-0.1-0.4-0.2-0.7-0.3c-0.3-0.1-0.6-0.2-0.7-0.3c-0.1-0.1-0.2-0.2-0.3-0.3s-0.1-0.3-0.1-0.4c0-0.3,0.1-0.5,0.4-0.7
		c0.2-0.2,0.6-0.3,1-0.3c0.4,0,0.8,0.1,1.1,0.2l-0.2,0.4c-0.4-0.1-0.7-0.2-1-0.2c-0.3,0-0.4,0-0.6,0.1c-0.1,0.1-0.2,0.2-0.2,0.3
		c0,0.1,0,0.2,0.1,0.2c0,0.1,0.1,0.1,0.2,0.2s0.3,0.1,0.6,0.3c0.4,0.2,0.7,0.3,0.9,0.5S172.3,99.9,172.3,100.2z"/>
	<path class="st7" d="M176,100.8c0.1,0,0.2,0,0.3,0c0.1,0,0.2,0,0.2,0v0.4c-0.1,0-0.1,0.1-0.3,0.1s-0.2,0-0.3,0c-0.7,0-1-0.4-1-1.1
		V98h-0.5v-0.3l0.5-0.2l0.2-0.8h0.3v0.8h1V98h-1v2.1c0,0.2,0.1,0.4,0.2,0.5C175.7,100.7,175.8,100.8,176,100.8z"/>
	<path class="st7" d="M180.3,99.4c0,0.6-0.1,1-0.4,1.4c-0.3,0.3-0.7,0.5-1.2,0.5c-0.3,0-0.6-0.1-0.8-0.2c-0.2-0.2-0.4-0.4-0.6-0.6
		s-0.2-0.6-0.2-1c0-0.6,0.1-1,0.4-1.4c0.3-0.3,0.7-0.5,1.2-0.5c0.5,0,0.9,0.2,1.2,0.5C180.2,98.3,180.3,98.8,180.3,99.4z
		 M177.6,99.4c0,0.5,0.1,0.8,0.3,1c0.2,0.2,0.5,0.4,0.8,0.4c0.4,0,0.6-0.1,0.8-0.4c0.2-0.2,0.3-0.6,0.3-1c0-0.5-0.1-0.8-0.3-1
		S179,98,178.7,98c-0.4,0-0.6,0.1-0.8,0.3C177.7,98.6,177.6,98.9,177.6,99.4z"/>
</g>
<g class="st6">
	<path class="st7" d="M154.1,108.3c0.1,0,0.2,0,0.3,0c0.1,0,0.2,0,0.2,0v0.4c-0.1,0-0.1,0.1-0.3,0.1s-0.2,0-0.3,0
		c-0.7,0-1-0.4-1-1.1v-2.1h-0.5v-0.3l0.5-0.2l0.2-0.8h0.3v0.8h1v0.4h-1v2.1c0,0.2,0.1,0.4,0.2,0.5
		C153.8,108.2,154,108.3,154.1,108.3z"/>
	<path class="st7" d="M156.9,108.7c-0.5,0-0.9-0.2-1.2-0.5c-0.3-0.3-0.5-0.8-0.5-1.3c0-0.6,0.1-1,0.4-1.4c0.3-0.3,0.7-0.5,1.1-0.5
		c0.4,0,0.8,0.1,1.1,0.4s0.4,0.7,0.4,1.2v0.3h-2.5c0,0.4,0.1,0.7,0.3,1c0.2,0.2,0.5,0.3,0.8,0.3c0.4,0,0.8-0.1,1.1-0.2v0.5
		c-0.2,0.1-0.4,0.1-0.5,0.2C157.3,108.7,157.1,108.7,156.9,108.7z M156.7,105.5c-0.3,0-0.5,0.1-0.7,0.3c-0.2,0.2-0.3,0.4-0.3,0.8
		h1.9c0-0.3-0.1-0.6-0.2-0.8C157.2,105.6,157,105.5,156.7,105.5z"/>
	<path class="st7" d="M160.5,108.7c-0.5,0-0.9-0.2-1.2-0.5s-0.4-0.8-0.4-1.3c0-0.6,0.1-1.1,0.4-1.4c0.3-0.3,0.7-0.5,1.2-0.5
		c0.2,0,0.3,0,0.5,0.1c0.2,0,0.3,0.1,0.4,0.1l-0.2,0.5c-0.1,0-0.3-0.1-0.4-0.1c-0.1,0-0.3,0-0.4,0c-0.7,0-1.1,0.5-1.1,1.4
		c0,0.4,0.1,0.8,0.3,1s0.4,0.4,0.8,0.4c0.3,0,0.6-0.1,0.9-0.2v0.5C161.2,108.7,160.9,108.7,160.5,108.7z"/>
	<path class="st7" d="M164.7,108.7v-2.3c0-0.3-0.1-0.5-0.2-0.7c-0.1-0.1-0.3-0.2-0.6-0.2c-0.4,0-0.7,0.1-0.8,0.3
		c-0.2,0.2-0.3,0.5-0.3,1v1.9h-0.5v-5.1h0.5v1.5c0,0.2,0,0.3,0,0.5h0c0.1-0.2,0.3-0.3,0.5-0.4c0.2-0.1,0.4-0.1,0.7-0.1
		c0.4,0,0.8,0.1,1,0.3c0.2,0.2,0.3,0.5,0.3,1v2.3H164.7z"/>
	<path class="st7" d="M168.8,108.7v-2.3c0-0.3-0.1-0.5-0.2-0.7c-0.1-0.1-0.3-0.2-0.6-0.2c-0.4,0-0.6,0.1-0.8,0.3
		c-0.2,0.2-0.3,0.5-0.3,1v1.9h-0.5v-3.6h0.4l0.1,0.5h0c0.1-0.2,0.3-0.3,0.5-0.4s0.4-0.1,0.7-0.1c0.4,0,0.8,0.1,1,0.3
		c0.2,0.2,0.3,0.5,0.3,1v2.3H168.8z"/>
	<path class="st7" d="M170.4,104.1c0-0.1,0-0.2,0.1-0.3s0.1-0.1,0.2-0.1c0.1,0,0.2,0,0.2,0.1c0.1,0.1,0.1,0.1,0.1,0.3
		c0,0.1,0,0.2-0.1,0.3c-0.1,0.1-0.1,0.1-0.2,0.1c-0.1,0-0.2,0-0.2-0.1S170.4,104.2,170.4,104.1z M171,108.7h-0.5v-3.6h0.5V108.7z"/>
	<path class="st7" d="M173.6,108.7c-0.5,0-0.9-0.2-1.2-0.5c-0.3-0.3-0.4-0.8-0.4-1.3c0-0.6,0.1-1.1,0.4-1.4c0.3-0.3,0.7-0.5,1.2-0.5
		c0.2,0,0.3,0,0.5,0.1s0.3,0.1,0.4,0.1l-0.2,0.5c-0.1,0-0.3-0.1-0.4-0.1c-0.1,0-0.3,0-0.4,0c-0.7,0-1.1,0.5-1.1,1.4
		c0,0.4,0.1,0.8,0.3,1c0.2,0.2,0.4,0.4,0.8,0.4c0.3,0,0.6-0.1,0.9-0.2v0.5C174.2,108.7,173.9,108.7,173.6,108.7z"/>
	<path class="st7" d="M177.5,108.7l-0.1-0.5h0c-0.2,0.2-0.4,0.4-0.5,0.5s-0.4,0.1-0.7,0.1c-0.4,0-0.6-0.1-0.8-0.3
		c-0.2-0.2-0.3-0.4-0.3-0.8c0-0.7,0.6-1.1,1.7-1.1l0.6,0v-0.2c0-0.3-0.1-0.5-0.2-0.6c-0.1-0.1-0.3-0.2-0.6-0.2c-0.3,0-0.6,0.1-1,0.3
		l-0.2-0.4c0.2-0.1,0.4-0.2,0.6-0.2c0.2-0.1,0.4-0.1,0.6-0.1c0.4,0,0.7,0.1,0.9,0.3s0.3,0.5,0.3,0.9v2.4H177.5z M176.3,108.3
		c0.3,0,0.6-0.1,0.8-0.3c0.2-0.2,0.3-0.4,0.3-0.8v-0.3l-0.5,0c-0.4,0-0.7,0.1-0.9,0.2c-0.2,0.1-0.3,0.3-0.3,0.6
		c0,0.2,0.1,0.3,0.2,0.4C175.9,108.2,176.1,108.3,176.3,108.3z"/>
	<path class="st7" d="M179.6,108.7H179v-5.1h0.5V108.7z"/>
</g>
<g class="st6">
	<path class="st7" d="M148,116.2l-0.1-0.5h0c-0.2,0.2-0.4,0.4-0.5,0.5s-0.4,0.1-0.7,0.1c-0.4,0-0.6-0.1-0.8-0.3
		c-0.2-0.2-0.3-0.4-0.3-0.8c0-0.7,0.6-1.1,1.7-1.1l0.6,0v-0.2c0-0.3-0.1-0.5-0.2-0.6c-0.1-0.1-0.3-0.2-0.6-0.2c-0.3,0-0.6,0.1-1,0.3
		l-0.2-0.4c0.2-0.1,0.4-0.2,0.6-0.2c0.2-0.1,0.4-0.1,0.6-0.1c0.4,0,0.7,0.1,0.9,0.3s0.3,0.5,0.3,0.9v2.4H148z M146.8,115.8
		c0.3,0,0.6-0.1,0.8-0.3c0.2-0.2,0.3-0.4,0.3-0.8v-0.3l-0.5,0c-0.4,0-0.7,0.1-0.9,0.2c-0.2,0.1-0.3,0.3-0.3,0.6
		c0,0.2,0.1,0.3,0.2,0.4C146.4,115.7,146.6,115.8,146.8,115.8z"/>
	<path class="st7" d="M151.9,116.2v-2.3c0-0.3-0.1-0.5-0.2-0.7c-0.1-0.1-0.3-0.2-0.6-0.2c-0.4,0-0.6,0.1-0.8,0.3
		c-0.2,0.2-0.3,0.5-0.3,1v1.9h-0.5v-3.6h0.4l0.1,0.5h0c0.1-0.2,0.3-0.3,0.5-0.4c0.2-0.1,0.4-0.1,0.7-0.1c0.4,0,0.8,0.1,1,0.3
		c0.2,0.2,0.3,0.5,0.3,1v2.3H151.9z"/>
	<path class="st7" d="M156,115.7L156,115.7c-0.3,0.4-0.7,0.5-1.2,0.5c-0.5,0-0.8-0.2-1.1-0.5c-0.3-0.3-0.4-0.8-0.4-1.4
		c0-0.6,0.1-1,0.4-1.4c0.3-0.3,0.6-0.5,1.1-0.5c0.5,0,0.9,0.2,1.1,0.5h0l0-0.3l0-0.3v-1.5h0.5v5.1h-0.4L156,115.7z M154.9,115.8
		c0.4,0,0.6-0.1,0.8-0.3c0.2-0.2,0.3-0.5,0.3-1v-0.1c0-0.5-0.1-0.9-0.3-1.1c-0.2-0.2-0.4-0.3-0.8-0.3c-0.3,0-0.6,0.1-0.7,0.4
		c-0.2,0.2-0.3,0.6-0.3,1c0,0.5,0.1,0.8,0.3,1C154.4,115.7,154.6,115.8,154.9,115.8z"/>
	<path class="st7" d="M161.7,115.2c0,0.3-0.1,0.6-0.4,0.8c-0.2,0.2-0.6,0.3-1,0.3c-0.5,0-0.8-0.1-1.1-0.2v-0.5
		c0.2,0.1,0.4,0.2,0.6,0.2c0.2,0,0.4,0.1,0.6,0.1c0.3,0,0.5,0,0.7-0.1c0.2-0.1,0.2-0.2,0.2-0.4c0-0.1-0.1-0.3-0.2-0.4
		c-0.1-0.1-0.4-0.2-0.7-0.3c-0.3-0.1-0.6-0.2-0.7-0.3c-0.1-0.1-0.2-0.2-0.3-0.3s-0.1-0.3-0.1-0.4c0-0.3,0.1-0.5,0.4-0.7
		c0.2-0.2,0.6-0.3,1-0.3c0.4,0,0.8,0.1,1.1,0.2l-0.2,0.4c-0.4-0.1-0.7-0.2-1-0.2c-0.3,0-0.4,0-0.6,0.1c-0.1,0.1-0.2,0.2-0.2,0.3
		c0,0.1,0,0.2,0.1,0.2c0,0.1,0.1,0.1,0.2,0.2s0.3,0.1,0.6,0.3c0.4,0.2,0.7,0.3,0.9,0.5S161.7,115,161.7,115.2z"/>
	<path class="st7" d="M165.7,114.4c0,0.6-0.1,1-0.4,1.4c-0.3,0.3-0.7,0.5-1.2,0.5c-0.3,0-0.6-0.1-0.8-0.2c-0.2-0.2-0.4-0.4-0.6-0.6
		s-0.2-0.6-0.2-1c0-0.6,0.1-1,0.4-1.4c0.3-0.3,0.7-0.5,1.2-0.5c0.5,0,0.9,0.2,1.2,0.5C165.5,113.4,165.7,113.8,165.7,114.4z
		 M163,114.4c0,0.5,0.1,0.8,0.3,1c0.2,0.2,0.5,0.4,0.8,0.4c0.4,0,0.6-0.1,0.8-0.4c0.2-0.2,0.3-0.6,0.3-1c0-0.5-0.1-0.8-0.3-1
		s-0.5-0.4-0.8-0.4c-0.4,0-0.6,0.1-0.8,0.3C163,113.6,163,113.9,163,114.4z"/>
	<path class="st7" d="M168.2,113h-0.9v3.1h-0.5V113h-0.6v-0.2l0.6-0.2v-0.2c0-0.9,0.4-1.3,1.1-1.3c0.2,0,0.4,0,0.7,0.1l-0.1,0.4
		c-0.2-0.1-0.4-0.1-0.5-0.1c-0.2,0-0.4,0.1-0.5,0.2s-0.1,0.4-0.1,0.7v0.2h0.9V113z"/>
	<path class="st7" d="M170,115.8c0.1,0,0.2,0,0.3,0c0.1,0,0.2,0,0.2,0v0.4c-0.1,0-0.1,0.1-0.3,0.1c-0.1,0-0.2,0-0.3,0
		c-0.7,0-1-0.4-1-1.1V113h-0.5v-0.3l0.5-0.2l0.2-0.8h0.3v0.8h1v0.4h-1v2.1c0,0.2,0.1,0.4,0.2,0.5C169.7,115.7,169.9,115.8,170,115.8
		z"/>
	<path class="st7" d="M175.3,115.2c0,0.3-0.1,0.6-0.4,0.8c-0.2,0.2-0.6,0.3-1,0.3c-0.5,0-0.8-0.1-1.1-0.2v-0.5
		c0.2,0.1,0.4,0.2,0.6,0.2s0.4,0.1,0.6,0.1c0.3,0,0.5,0,0.7-0.1c0.2-0.1,0.2-0.2,0.2-0.4c0-0.1-0.1-0.3-0.2-0.4
		c-0.1-0.1-0.4-0.2-0.7-0.3c-0.3-0.1-0.6-0.2-0.7-0.3c-0.1-0.1-0.2-0.2-0.3-0.3s-0.1-0.3-0.1-0.4c0-0.3,0.1-0.5,0.4-0.7
		c0.2-0.2,0.6-0.3,1-0.3c0.4,0,0.8,0.1,1.1,0.2l-0.2,0.4c-0.4-0.1-0.7-0.2-1-0.2c-0.3,0-0.4,0-0.6,0.1c-0.1,0.1-0.2,0.2-0.2,0.3
		c0,0.1,0,0.2,0.1,0.2c0,0.1,0.1,0.1,0.2,0.2c0.1,0.1,0.3,0.1,0.6,0.3c0.4,0.2,0.7,0.3,0.9,0.5C175.2,114.8,175.3,115,175.3,115.2z"
		/>
	<path class="st7" d="M176.7,114.4c0.1-0.1,0.2-0.3,0.4-0.5l1.2-1.2h0.6l-1.4,1.5l1.5,2h-0.7l-1.3-1.7l-0.4,0.4v1.3h-0.5v-5.1h0.5
		v2.7C176.7,113.9,176.7,114.1,176.7,114.4L176.7,114.4z"/>
	<path class="st7" d="M179.6,111.6c0-0.1,0-0.2,0.1-0.3c0.1-0.1,0.1-0.1,0.2-0.1c0.1,0,0.2,0,0.2,0.1c0.1,0.1,0.1,0.1,0.1,0.3
		c0,0.1,0,0.2-0.1,0.3c-0.1,0.1-0.1,0.1-0.2,0.1c-0.1,0-0.2,0-0.2-0.1C179.6,111.9,179.6,111.8,179.6,111.6z M180.2,116.2h-0.5v-3.6
		h0.5V116.2z"/>
	<path class="st7" d="M181.9,116.2h-0.5v-5.1h0.5V116.2z"/>
	<path class="st7" d="M183.6,116.2H183v-5.1h0.5V116.2z"/>
	<path class="st7" d="M187,115.2c0,0.3-0.1,0.6-0.4,0.8c-0.2,0.2-0.6,0.3-1,0.3c-0.5,0-0.8-0.1-1.1-0.2v-0.5
		c0.2,0.1,0.4,0.2,0.6,0.2s0.4,0.1,0.6,0.1c0.3,0,0.5,0,0.7-0.1c0.2-0.1,0.2-0.2,0.2-0.4c0-0.1-0.1-0.3-0.2-0.4
		c-0.1-0.1-0.4-0.2-0.7-0.3c-0.3-0.1-0.6-0.2-0.7-0.3c-0.1-0.1-0.2-0.2-0.3-0.3s-0.1-0.3-0.1-0.4c0-0.3,0.1-0.5,0.4-0.7
		c0.2-0.2,0.6-0.3,1-0.3c0.4,0,0.8,0.1,1.1,0.2l-0.2,0.4c-0.4-0.1-0.7-0.2-1-0.2c-0.3,0-0.4,0-0.6,0.1c-0.1,0.1-0.2,0.2-0.2,0.3
		c0,0.1,0,0.2,0.1,0.2c0,0.1,0.1,0.1,0.2,0.2c0.1,0.1,0.3,0.1,0.6,0.3c0.4,0.2,0.7,0.3,0.9,0.5C186.9,114.8,187,115,187,115.2z"/>
</g>
<g class="st6">
	<path class="st7" d="M60.8,146.1c-0.4,0-0.7,0.2-1,0.5c-0.2,0.3-0.3,0.8-0.3,1.3c0,1.2,0.4,1.8,1.3,1.8c0.4,0,0.8-0.1,1.3-0.3v0.9
		c-0.4,0.2-0.9,0.3-1.5,0.3c-0.8,0-1.4-0.2-1.8-0.7s-0.6-1.1-0.6-2c0-0.5,0.1-1,0.3-1.4s0.5-0.7,0.9-1s0.8-0.3,1.3-0.3
		c0.5,0,1,0.1,1.5,0.4l-0.4,0.9c-0.2-0.1-0.4-0.2-0.6-0.2C61.1,146.1,60.9,146.1,60.8,146.1z"/>
	<path class="st7" d="M65.7,150.5l-0.2-0.5h0c-0.2,0.2-0.4,0.4-0.6,0.5c-0.2,0.1-0.5,0.1-0.8,0.1c-0.4,0-0.7-0.1-0.9-0.3
		c-0.2-0.2-0.3-0.5-0.3-0.9c0-0.4,0.2-0.7,0.5-1s0.8-0.3,1.4-0.3l0.7,0v-0.2c0-0.4-0.2-0.6-0.6-0.6c-0.3,0-0.7,0.1-1.1,0.3l-0.4-0.7
		c0.5-0.2,1-0.4,1.5-0.4c0.5,0,1,0.1,1.2,0.4s0.4,0.6,0.4,1.1v2.7H65.7z M65.4,148.7l-0.4,0c-0.3,0-0.6,0.1-0.7,0.2
		c-0.2,0.1-0.2,0.3-0.2,0.5c0,0.3,0.2,0.5,0.5,0.5c0.3,0,0.5-0.1,0.6-0.2s0.2-0.3,0.2-0.6V148.7z"/>
	<path class="st7" d="M69.8,150.6c-0.5,0-0.8-0.2-1.1-0.5h-0.1c0,0.3,0.1,0.5,0.1,0.6v1.6h-1.1v-5.8h0.9l0.2,0.5h0.1
		c0.3-0.4,0.6-0.6,1.1-0.6c0.5,0,0.9,0.2,1.1,0.6c0.3,0.4,0.4,0.9,0.4,1.5c0,0.4-0.1,0.8-0.2,1.1c-0.1,0.3-0.3,0.6-0.5,0.7
		C70.4,150.5,70.2,150.6,69.8,150.6z M69.5,147.3c-0.3,0-0.5,0.1-0.6,0.3c-0.1,0.2-0.2,0.4-0.2,0.8v0.1c0,0.4,0.1,0.7,0.2,0.9
		s0.3,0.3,0.6,0.3c0.5,0,0.7-0.4,0.7-1.2c0-0.4-0.1-0.7-0.2-0.9C70,147.4,69.8,147.3,69.5,147.3z"/>
	<path class="st7" d="M72.3,145.4c0-0.4,0.2-0.5,0.6-0.5s0.6,0.2,0.6,0.5c0,0.2,0,0.3-0.1,0.4c-0.1,0.1-0.3,0.1-0.5,0.1
		C72.5,146,72.3,145.8,72.3,145.4z M73.4,150.5h-1.1v-4h1.1V150.5z"/>
	<path class="st7" d="M76.3,149.7c0.2,0,0.4,0,0.7-0.1v0.8c-0.3,0.1-0.6,0.2-1,0.2c-0.4,0-0.8-0.1-1-0.3c-0.2-0.2-0.3-0.6-0.3-1v-2
		h-0.5v-0.5l0.6-0.4l0.3-0.9h0.7v0.9h1.1v0.8h-1.1v2c0,0.2,0,0.3,0.1,0.3C76,149.7,76.1,149.7,76.3,149.7z"/>
	<path class="st7" d="M80.4,150.5l-0.2-0.5h0c-0.2,0.2-0.4,0.4-0.6,0.5c-0.2,0.1-0.5,0.1-0.8,0.1c-0.4,0-0.7-0.1-0.9-0.3
		c-0.2-0.2-0.3-0.5-0.3-0.9c0-0.4,0.2-0.7,0.5-1s0.8-0.3,1.4-0.3l0.7,0v-0.2c0-0.4-0.2-0.6-0.6-0.6c-0.3,0-0.7,0.1-1.1,0.3l-0.4-0.7
		c0.5-0.2,1-0.4,1.5-0.4c0.5,0,1,0.1,1.2,0.4s0.4,0.6,0.4,1.1v2.7H80.4z M80,148.7l-0.4,0c-0.3,0-0.6,0.1-0.7,0.2
		c-0.2,0.1-0.2,0.3-0.2,0.5c0,0.3,0.2,0.5,0.5,0.5c0.3,0,0.5-0.1,0.6-0.2s0.2-0.3,0.2-0.6V148.7z"/>
	<path class="st7" d="M83.4,150.5h-1.1v-5.6h1.1V150.5z"/>
</g>
<g class="st6">
	<path class="st7" d="M46,158l-0.6-1.5h-1.9l-0.6,1.5h-0.6l1.9-4.8h0.5l1.9,4.8H46z M45.2,156l-0.6-1.5c-0.1-0.2-0.1-0.4-0.2-0.7
		c0,0.2-0.1,0.4-0.2,0.7l-0.6,1.5H45.2z"/>
	<path class="st7" d="M48.6,158.1c-0.5,0-0.9-0.2-1.2-0.5c-0.3-0.3-0.4-0.8-0.4-1.3c0-0.6,0.1-1.1,0.4-1.4c0.3-0.3,0.7-0.5,1.2-0.5
		c0.2,0,0.3,0,0.5,0.1c0.2,0,0.3,0.1,0.4,0.1l-0.2,0.5c-0.1,0-0.3-0.1-0.4-0.1s-0.3,0-0.4,0c-0.7,0-1.1,0.5-1.1,1.4
		c0,0.4,0.1,0.8,0.3,1c0.2,0.2,0.4,0.4,0.8,0.4c0.3,0,0.6-0.1,0.9-0.2v0.5C49.2,158.1,48.9,158.1,48.6,158.1z"/>
	<path class="st7" d="M51.7,158.1c-0.5,0-0.9-0.2-1.2-0.5c-0.3-0.3-0.4-0.8-0.4-1.3c0-0.6,0.1-1.1,0.4-1.4c0.3-0.3,0.7-0.5,1.2-0.5
		c0.2,0,0.3,0,0.5,0.1c0.2,0,0.3,0.1,0.4,0.1l-0.2,0.5c-0.1,0-0.3-0.1-0.4-0.1s-0.3,0-0.4,0c-0.7,0-1.1,0.5-1.1,1.4
		c0,0.4,0.1,0.8,0.3,1c0.2,0.2,0.4,0.4,0.8,0.4c0.3,0,0.6-0.1,0.9-0.2v0.5C52.4,158.1,52.1,158.1,51.7,158.1z"/>
	<path class="st7" d="M55,158.1c-0.5,0-0.9-0.2-1.2-0.5s-0.5-0.8-0.5-1.3c0-0.6,0.1-1,0.4-1.4c0.3-0.3,0.7-0.5,1.1-0.5
		c0.4,0,0.8,0.1,1.1,0.4c0.3,0.3,0.4,0.7,0.4,1.2v0.3h-2.5c0,0.4,0.1,0.7,0.3,1c0.2,0.2,0.5,0.3,0.8,0.3c0.4,0,0.8-0.1,1.1-0.2v0.5
		c-0.2,0.1-0.4,0.1-0.5,0.2C55.4,158.1,55.2,158.1,55,158.1z M54.8,154.9c-0.3,0-0.5,0.1-0.7,0.3c-0.2,0.2-0.3,0.4-0.3,0.8h1.9
		c0-0.3-0.1-0.6-0.2-0.8C55.3,155,55.1,154.9,54.8,154.9z"/>
	<path class="st7" d="M59.5,157.1c0,0.3-0.1,0.6-0.4,0.8c-0.2,0.2-0.6,0.3-1,0.3c-0.5,0-0.8-0.1-1.1-0.2v-0.5
		c0.2,0.1,0.4,0.2,0.6,0.2c0.2,0,0.4,0.1,0.6,0.1c0.3,0,0.5,0,0.7-0.1c0.2-0.1,0.2-0.2,0.2-0.4c0-0.1-0.1-0.3-0.2-0.4
		c-0.1-0.1-0.4-0.2-0.7-0.3c-0.3-0.1-0.6-0.2-0.7-0.3c-0.1-0.1-0.2-0.2-0.3-0.3s-0.1-0.3-0.1-0.4c0-0.3,0.1-0.5,0.4-0.7
		c0.2-0.2,0.6-0.3,1-0.3c0.4,0,0.8,0.1,1.1,0.2l-0.2,0.4c-0.4-0.1-0.7-0.2-1-0.2c-0.3,0-0.4,0-0.6,0.1s-0.2,0.2-0.2,0.3
		c0,0.1,0,0.2,0.1,0.2c0,0.1,0.1,0.1,0.2,0.2c0.1,0.1,0.3,0.1,0.6,0.3c0.4,0.2,0.7,0.3,0.9,0.5C59.4,156.6,59.5,156.8,59.5,157.1z"
		/>
	<path class="st7" d="M62.7,157.1c0,0.3-0.1,0.6-0.4,0.8c-0.2,0.2-0.6,0.3-1,0.3c-0.5,0-0.8-0.1-1.1-0.2v-0.5
		c0.2,0.1,0.4,0.2,0.6,0.2c0.2,0,0.4,0.1,0.6,0.1c0.3,0,0.5,0,0.7-0.1c0.2-0.1,0.2-0.2,0.2-0.4c0-0.1-0.1-0.3-0.2-0.4
		c-0.1-0.1-0.4-0.2-0.7-0.3c-0.3-0.1-0.6-0.2-0.7-0.3c-0.1-0.1-0.2-0.2-0.3-0.3s-0.1-0.3-0.1-0.4c0-0.3,0.1-0.5,0.4-0.7
		c0.2-0.2,0.6-0.3,1-0.3c0.4,0,0.8,0.1,1.1,0.2l-0.2,0.4c-0.4-0.1-0.7-0.2-1-0.2c-0.3,0-0.4,0-0.6,0.1s-0.2,0.2-0.2,0.3
		c0,0.1,0,0.2,0.1,0.2c0,0.1,0.1,0.1,0.2,0.2c0.1,0.1,0.3,0.1,0.6,0.3c0.4,0.2,0.7,0.3,0.9,0.5C62.6,156.6,62.7,156.8,62.7,157.1z"
		/>
	<path class="st7" d="M66.5,157.7c0.1,0,0.2,0,0.3,0c0.1,0,0.2,0,0.2,0v0.4c-0.1,0-0.1,0.1-0.3,0.1c-0.1,0-0.2,0-0.3,0
		c-0.7,0-1-0.4-1-1.1v-2.1h-0.5v-0.3l0.5-0.2l0.2-0.8h0.3v0.8h1v0.4h-1v2.1c0,0.2,0.1,0.4,0.2,0.5S66.3,157.7,66.5,157.7z"/>
	<path class="st7" d="M70.7,156.3c0,0.6-0.1,1-0.4,1.4c-0.3,0.3-0.7,0.5-1.2,0.5c-0.3,0-0.6-0.1-0.8-0.2c-0.2-0.2-0.4-0.4-0.6-0.6
		c-0.1-0.3-0.2-0.6-0.2-1c0-0.6,0.1-1,0.4-1.4c0.3-0.3,0.7-0.5,1.2-0.5c0.5,0,0.9,0.2,1.2,0.5C70.6,155.2,70.7,155.7,70.7,156.3z
		 M68,156.3c0,0.5,0.1,0.8,0.3,1c0.2,0.2,0.5,0.4,0.8,0.4s0.6-0.1,0.8-0.4c0.2-0.2,0.3-0.6,0.3-1c0-0.5-0.1-0.8-0.3-1
		s-0.5-0.4-0.8-0.4c-0.4,0-0.6,0.1-0.8,0.3S68,155.8,68,156.3z"/>
	<path class="st7" d="M76.3,158l-0.7-2.1c0-0.1-0.1-0.4-0.2-0.9h0c-0.1,0.4-0.2,0.7-0.2,0.9l-0.7,2.1h-0.6l-1-3.6h0.6
		c0.2,0.9,0.4,1.6,0.5,2c0.1,0.5,0.2,0.8,0.2,0.9h0c0-0.1,0.1-0.3,0.1-0.5s0.1-0.4,0.1-0.5l0.7-2h0.6l0.6,2c0.1,0.4,0.2,0.7,0.2,0.9
		h0c0-0.1,0-0.2,0.1-0.4c0-0.2,0.3-1,0.7-2.6H78l-1,3.6H76.3z"/>
	<path class="st7" d="M81.7,156.3c0,0.6-0.1,1-0.4,1.4c-0.3,0.3-0.7,0.5-1.2,0.5c-0.3,0-0.6-0.1-0.8-0.2c-0.2-0.2-0.4-0.4-0.6-0.6
		c-0.1-0.3-0.2-0.6-0.2-1c0-0.6,0.1-1,0.4-1.4c0.3-0.3,0.7-0.5,1.2-0.5c0.5,0,0.9,0.2,1.2,0.5C81.6,155.2,81.7,155.7,81.7,156.3z
		 M79,156.3c0,0.5,0.1,0.8,0.3,1c0.2,0.2,0.5,0.4,0.8,0.4s0.6-0.1,0.8-0.4c0.2-0.2,0.3-0.6,0.3-1c0-0.5-0.1-0.8-0.3-1
		s-0.5-0.4-0.8-0.4c-0.4,0-0.6,0.1-0.8,0.3S79,155.8,79,156.3z"/>
	<path class="st7" d="M84.3,154.4c0.2,0,0.3,0,0.4,0l-0.1,0.5c-0.1,0-0.3,0-0.4,0c-0.3,0-0.5,0.1-0.7,0.4c-0.2,0.2-0.3,0.5-0.3,0.9
		v1.9h-0.5v-3.6h0.4l0.1,0.7h0c0.1-0.2,0.3-0.4,0.5-0.5C83.8,154.5,84.1,154.4,84.3,154.4z"/>
	<path class="st7" d="M85.9,156.2c0.1-0.1,0.2-0.3,0.4-0.5l1.2-1.2h0.6l-1.4,1.5l1.5,2h-0.7l-1.3-1.7l-0.4,0.4v1.3h-0.5V153h0.5v2.7
		C85.9,155.8,85.9,156,85.9,156.2L85.9,156.2z"/>
	<path class="st7" d="M88.8,153.5c0-0.1,0-0.2,0.1-0.3c0.1-0.1,0.1-0.1,0.2-0.1c0.1,0,0.2,0,0.2,0.1s0.1,0.1,0.1,0.3
		c0,0.1,0,0.2-0.1,0.3s-0.1,0.1-0.2,0.1c-0.1,0-0.2,0-0.2-0.1C88.9,153.7,88.8,153.6,88.8,153.5z M89.4,158h-0.5v-3.6h0.5V158z"/>
	<path class="st7" d="M93,158v-2.3c0-0.3-0.1-0.5-0.2-0.7c-0.1-0.1-0.3-0.2-0.6-0.2c-0.4,0-0.6,0.1-0.8,0.3c-0.2,0.2-0.3,0.5-0.3,1
		v1.9h-0.5v-3.6H91l0.1,0.5h0c0.1-0.2,0.3-0.3,0.5-0.4c0.2-0.1,0.4-0.1,0.7-0.1c0.4,0,0.8,0.1,1,0.3c0.2,0.2,0.3,0.5,0.3,1v2.3H93z"
		/>
	<path class="st7" d="M97.6,154.5v0.3l-0.7,0.1c0.1,0.1,0.1,0.2,0.2,0.3c0,0.1,0.1,0.3,0.1,0.4c0,0.3-0.1,0.6-0.4,0.8
		c-0.2,0.2-0.6,0.3-1,0.3c-0.1,0-0.2,0-0.3,0c-0.2,0.1-0.3,0.3-0.3,0.5c0,0.1,0,0.2,0.1,0.2c0.1,0,0.2,0.1,0.4,0.1h0.6
		c0.4,0,0.7,0.1,0.9,0.2c0.2,0.2,0.3,0.4,0.3,0.7c0,0.4-0.2,0.7-0.5,0.9c-0.3,0.2-0.8,0.3-1.4,0.3c-0.5,0-0.8-0.1-1.1-0.3
		s-0.4-0.4-0.4-0.7c0-0.2,0.1-0.4,0.2-0.6c0.1-0.2,0.3-0.3,0.6-0.3c-0.1,0-0.2-0.1-0.2-0.2c-0.1-0.1-0.1-0.2-0.1-0.3
		c0-0.1,0-0.2,0.1-0.3c0.1-0.1,0.2-0.2,0.3-0.3c-0.2-0.1-0.3-0.2-0.5-0.4c-0.1-0.2-0.2-0.4-0.2-0.6c0-0.4,0.1-0.7,0.4-0.9
		c0.2-0.2,0.6-0.3,1-0.3c0.2,0,0.4,0,0.5,0.1H97.6z M94.7,158.6c0,0.2,0.1,0.3,0.2,0.4c0.2,0.1,0.4,0.1,0.7,0.1c0.5,0,0.8-0.1,1-0.2
		s0.3-0.3,0.3-0.6c0-0.2-0.1-0.3-0.2-0.4c-0.1-0.1-0.3-0.1-0.7-0.1h-0.6c-0.2,0-0.4,0.1-0.6,0.2C94.8,158.3,94.7,158.4,94.7,158.6z
		 M95,155.6c0,0.3,0.1,0.4,0.2,0.6s0.3,0.2,0.6,0.2c0.5,0,0.8-0.3,0.8-0.8c0-0.5-0.3-0.8-0.8-0.8c-0.3,0-0.4,0.1-0.6,0.2
		S95,155.4,95,155.6z"/>
</g>
<g class="st6">
	<path class="st7" d="M59.4,165.6c-0.5,0-0.9-0.2-1.2-0.5c-0.3-0.3-0.4-0.8-0.4-1.3c0-0.6,0.1-1.1,0.4-1.4c0.3-0.3,0.7-0.5,1.2-0.5
		c0.2,0,0.3,0,0.5,0.1c0.2,0,0.3,0.1,0.4,0.1l-0.2,0.5c-0.1,0-0.3-0.1-0.4-0.1s-0.3,0-0.4,0c-0.7,0-1.1,0.5-1.1,1.4
		c0,0.4,0.1,0.8,0.3,1c0.2,0.2,0.4,0.4,0.8,0.4c0.3,0,0.6-0.1,0.9-0.2v0.5C60.1,165.6,59.8,165.6,59.4,165.6z"/>
	<path class="st7" d="M63.3,165.6l-0.1-0.5h0c-0.2,0.2-0.4,0.4-0.5,0.5c-0.2,0.1-0.4,0.1-0.7,0.1c-0.4,0-0.6-0.1-0.8-0.3
		c-0.2-0.2-0.3-0.4-0.3-0.8c0-0.7,0.6-1.1,1.7-1.1l0.6,0v-0.2c0-0.3-0.1-0.5-0.2-0.6s-0.3-0.2-0.6-0.2c-0.3,0-0.6,0.1-1,0.3
		l-0.2-0.4c0.2-0.1,0.4-0.2,0.6-0.2c0.2-0.1,0.4-0.1,0.6-0.1c0.4,0,0.7,0.1,0.9,0.3c0.2,0.2,0.3,0.5,0.3,0.9v2.4H63.3z M62.1,165.2
		c0.3,0,0.6-0.1,0.8-0.3c0.2-0.2,0.3-0.4,0.3-0.8v-0.3l-0.5,0c-0.4,0-0.7,0.1-0.9,0.2s-0.3,0.3-0.3,0.6c0,0.2,0.1,0.3,0.2,0.4
		C61.7,165.1,61.9,165.2,62.1,165.2z"/>
	<path class="st7" d="M66.5,165.6c-0.2,0-0.4,0-0.6-0.1c-0.2-0.1-0.4-0.2-0.5-0.4h0c0,0.2,0,0.4,0,0.6v1.5h-0.5V162h0.4l0.1,0.5h0
		c0.1-0.2,0.3-0.3,0.5-0.4c0.2-0.1,0.4-0.1,0.6-0.1c0.5,0,0.8,0.2,1.1,0.5s0.4,0.8,0.4,1.4c0,0.6-0.1,1-0.4,1.4
		C67.3,165.5,67,165.6,66.5,165.6z M66.4,162.4c-0.4,0-0.6,0.1-0.8,0.3c-0.2,0.2-0.2,0.5-0.3,1v0.1c0,0.5,0.1,0.9,0.3,1.1
		c0.2,0.2,0.4,0.3,0.8,0.3c0.3,0,0.5-0.1,0.7-0.4c0.2-0.3,0.3-0.6,0.3-1c0-0.4-0.1-0.8-0.3-1C67,162.5,66.7,162.4,66.4,162.4z"/>
	<path class="st7" d="M68.9,161c0-0.1,0-0.2,0.1-0.3c0.1-0.1,0.1-0.1,0.2-0.1c0.1,0,0.2,0,0.2,0.1s0.1,0.1,0.1,0.3
		c0,0.1,0,0.2-0.1,0.3s-0.1,0.1-0.2,0.1c-0.1,0-0.2,0-0.2-0.1C68.9,161.2,68.9,161.1,68.9,161z M69.5,165.6h-0.5V162h0.5V165.6z"/>
	<path class="st7" d="M71.8,165.2c0.1,0,0.2,0,0.3,0c0.1,0,0.2,0,0.2,0v0.4c-0.1,0-0.1,0.1-0.3,0.1c-0.1,0-0.2,0-0.3,0
		c-0.7,0-1-0.4-1-1.1v-2.1h-0.5v-0.3l0.5-0.2l0.2-0.8h0.3v0.8h1v0.4h-1v2.1c0,0.2,0.1,0.4,0.2,0.5S71.6,165.2,71.8,165.2z"/>
	<path class="st7" d="M75.2,165.6l-0.1-0.5h0c-0.2,0.2-0.4,0.4-0.5,0.5c-0.2,0.1-0.4,0.1-0.7,0.1c-0.4,0-0.6-0.1-0.8-0.3
		c-0.2-0.2-0.3-0.4-0.3-0.8c0-0.7,0.6-1.1,1.7-1.1l0.6,0v-0.2c0-0.3-0.1-0.5-0.2-0.6s-0.3-0.2-0.6-0.2c-0.3,0-0.6,0.1-1,0.3
		l-0.2-0.4c0.2-0.1,0.4-0.2,0.6-0.2c0.2-0.1,0.4-0.1,0.6-0.1c0.4,0,0.7,0.1,0.9,0.3c0.2,0.2,0.3,0.5,0.3,0.9v2.4H75.2z M74,165.2
		c0.3,0,0.6-0.1,0.8-0.3c0.2-0.2,0.3-0.4,0.3-0.8v-0.3l-0.5,0c-0.4,0-0.7,0.1-0.9,0.2s-0.3,0.3-0.3,0.6c0,0.2,0.1,0.3,0.2,0.4
		C73.6,165.1,73.7,165.2,74,165.2z"/>
	<path class="st7" d="M77.2,165.6h-0.5v-5.1h0.5V165.6z"/>
	<path class="st7" d="M79.9,164.3c0-0.3,0.1-0.5,0.2-0.7s0.4-0.4,0.8-0.7c-0.2-0.2-0.3-0.4-0.4-0.5s-0.1-0.2-0.2-0.3
		s-0.1-0.2-0.1-0.4c0-0.3,0.1-0.6,0.3-0.8c0.2-0.2,0.5-0.3,0.9-0.3c0.4,0,0.6,0.1,0.8,0.3c0.2,0.2,0.3,0.4,0.3,0.8
		c0,0.2-0.1,0.4-0.2,0.6c-0.1,0.2-0.4,0.4-0.7,0.6l1.3,1.3c0.1-0.1,0.2-0.3,0.3-0.5c0.1-0.2,0.1-0.4,0.2-0.6h0.5
		c-0.1,0.6-0.4,1.1-0.7,1.4l1,0.9h-0.7L83,165c-0.3,0.2-0.5,0.4-0.8,0.5c-0.3,0.1-0.6,0.2-0.9,0.2c-0.5,0-0.8-0.1-1.1-0.3
		C80,165,79.9,164.7,79.9,164.3z M81.4,165.1c0.5,0,1-0.2,1.3-0.5l-1.4-1.4c-0.2,0.1-0.4,0.3-0.5,0.4c-0.1,0.1-0.2,0.2-0.2,0.3
		c0,0.1-0.1,0.2-0.1,0.4c0,0.3,0.1,0.5,0.3,0.6C80.9,165.1,81.1,165.1,81.4,165.1z M80.9,161.7c0,0.1,0,0.3,0.1,0.4
		c0.1,0.1,0.2,0.3,0.4,0.5c0.3-0.2,0.5-0.3,0.6-0.5c0.1-0.1,0.2-0.3,0.2-0.5c0-0.2-0.1-0.3-0.2-0.4c-0.1-0.1-0.3-0.2-0.4-0.2
		c-0.2,0-0.4,0.1-0.5,0.2C80.9,161.4,80.9,161.6,80.9,161.7z"/>
</g>
<g class="st6">
	<path class="st7" d="M51.2,168.5c0-0.1,0-0.2,0.1-0.3c0.1-0.1,0.1-0.1,0.2-0.1c0.1,0,0.2,0,0.2,0.1s0.1,0.1,0.1,0.3
		c0,0.1,0,0.2-0.1,0.3s-0.1,0.1-0.2,0.1c-0.1,0-0.2,0-0.2-0.1C51.2,168.8,51.2,168.7,51.2,168.5z M51.7,173.1h-0.5v-3.6h0.5V173.1z"
		/>
	<path class="st7" d="M57.4,173.1v-2.3c0-0.3-0.1-0.5-0.2-0.6c-0.1-0.1-0.3-0.2-0.6-0.2c-0.3,0-0.6,0.1-0.7,0.3s-0.2,0.5-0.2,0.9v2
		h-0.5v-2.3c0-0.3-0.1-0.5-0.2-0.6c-0.1-0.1-0.3-0.2-0.6-0.2c-0.3,0-0.6,0.1-0.7,0.3c-0.2,0.2-0.2,0.5-0.2,1v1.9h-0.5v-3.6h0.4
		l0.1,0.5h0c0.1-0.2,0.2-0.3,0.4-0.4c0.2-0.1,0.4-0.1,0.6-0.1c0.6,0,0.9,0.2,1.1,0.6h0c0.1-0.2,0.3-0.3,0.5-0.4
		c0.2-0.1,0.4-0.2,0.7-0.2c0.4,0,0.7,0.1,0.9,0.3c0.2,0.2,0.3,0.5,0.3,1v2.3H57.4z"/>
	<path class="st7" d="M60.7,173.1c-0.2,0-0.4,0-0.6-0.1c-0.2-0.1-0.4-0.2-0.5-0.4h0c0,0.2,0,0.4,0,0.6v1.5h-0.5v-5.2h0.4l0.1,0.5h0
		c0.1-0.2,0.3-0.3,0.5-0.4c0.2-0.1,0.4-0.1,0.6-0.1c0.5,0,0.8,0.2,1.1,0.5s0.4,0.8,0.4,1.4c0,0.6-0.1,1-0.4,1.4
		C61.6,173,61.2,173.1,60.7,173.1z M60.7,169.9c-0.4,0-0.6,0.1-0.8,0.3c-0.2,0.2-0.2,0.5-0.3,1v0.1c0,0.5,0.1,0.9,0.3,1.1
		c0.2,0.2,0.4,0.3,0.8,0.3c0.3,0,0.5-0.1,0.7-0.4c0.2-0.3,0.3-0.6,0.3-1c0-0.4-0.1-0.8-0.3-1C61.2,170,61,169.9,60.7,169.9z"/>
	<path class="st7" d="M65.4,173.1l-0.1-0.5h0c-0.2,0.2-0.4,0.4-0.5,0.5c-0.2,0.1-0.4,0.1-0.7,0.1c-0.4,0-0.6-0.1-0.8-0.3
		c-0.2-0.2-0.3-0.4-0.3-0.8c0-0.7,0.6-1.1,1.7-1.1l0.6,0v-0.2c0-0.3-0.1-0.5-0.2-0.6s-0.3-0.2-0.6-0.2c-0.3,0-0.6,0.1-1,0.3
		l-0.2-0.4c0.2-0.1,0.4-0.2,0.6-0.2c0.2-0.1,0.4-0.1,0.6-0.1c0.4,0,0.7,0.1,0.9,0.3c0.2,0.2,0.3,0.5,0.3,0.9v2.4H65.4z M64.1,172.7
		c0.3,0,0.6-0.1,0.8-0.3c0.2-0.2,0.3-0.4,0.3-0.8v-0.3l-0.5,0c-0.4,0-0.7,0.1-0.9,0.2s-0.3,0.3-0.3,0.6c0,0.2,0.1,0.3,0.2,0.4
		C63.8,172.6,63.9,172.7,64.1,172.7z"/>
	<path class="st7" d="M68.3,173.1c-0.5,0-0.9-0.2-1.2-0.5c-0.3-0.3-0.4-0.8-0.4-1.3c0-0.6,0.1-1.1,0.4-1.4c0.3-0.3,0.7-0.5,1.2-0.5
		c0.2,0,0.3,0,0.5,0.1c0.2,0,0.3,0.1,0.4,0.1l-0.2,0.5c-0.1,0-0.3-0.1-0.4-0.1s-0.3,0-0.4,0c-0.7,0-1.1,0.5-1.1,1.4
		c0,0.4,0.1,0.8,0.3,1c0.2,0.2,0.4,0.4,0.8,0.4c0.3,0,0.6-0.1,0.9-0.2v0.5C69,173.1,68.7,173.1,68.3,173.1z"/>
	<path class="st7" d="M71.2,172.7c0.1,0,0.2,0,0.3,0c0.1,0,0.2,0,0.2,0v0.4c-0.1,0-0.1,0.1-0.3,0.1c-0.1,0-0.2,0-0.3,0
		c-0.7,0-1-0.4-1-1.1v-2.1h-0.5v-0.3l0.5-0.2l0.2-0.8h0.3v0.8h1v0.4h-1v2.1c0,0.2,0.1,0.4,0.2,0.5S71,172.7,71.2,172.7z"/>
	<path class="st7" d="M75.7,173.1c-0.5,0-0.9-0.2-1.2-0.5s-0.5-0.8-0.5-1.3c0-0.6,0.1-1,0.4-1.4c0.3-0.3,0.7-0.5,1.1-0.5
		c0.4,0,0.8,0.1,1.1,0.4c0.3,0.3,0.4,0.7,0.4,1.2v0.3h-2.5c0,0.4,0.1,0.7,0.3,1c0.2,0.2,0.5,0.3,0.8,0.3c0.4,0,0.8-0.1,1.1-0.2v0.5
		c-0.2,0.1-0.4,0.1-0.5,0.2C76.1,173.1,75.9,173.1,75.7,173.1z M75.5,169.9c-0.3,0-0.5,0.1-0.7,0.3c-0.2,0.2-0.3,0.4-0.3,0.8h1.9
		c0-0.3-0.1-0.6-0.2-0.8C76,170,75.8,169.9,75.5,169.9z"/>
	<path class="st7" d="M79.2,173.1c-0.5,0-0.8-0.2-1.1-0.5s-0.4-0.8-0.4-1.4c0-0.6,0.1-1,0.4-1.4c0.3-0.3,0.6-0.5,1.1-0.5
		c0.5,0,0.9,0.2,1.1,0.6h0l0.1-0.5h0.4v5.2h-0.5v-1.5c0-0.2,0-0.4,0-0.6h0C80,173,79.7,173.1,79.2,173.1z M79.2,172.7
		c0.4,0,0.6-0.1,0.8-0.3s0.3-0.5,0.3-1v-0.1c0-0.5-0.1-0.9-0.3-1.1c-0.2-0.2-0.4-0.3-0.8-0.3c-0.3,0-0.6,0.1-0.7,0.4
		c-0.2,0.2-0.3,0.6-0.3,1s0.1,0.8,0.2,1C78.7,172.6,78.9,172.7,79.2,172.7z"/>
	<path class="st7" d="M82.5,169.5v2.3c0,0.3,0.1,0.5,0.2,0.7s0.3,0.2,0.6,0.2c0.4,0,0.6-0.1,0.8-0.3c0.2-0.2,0.3-0.5,0.3-1v-1.9h0.5
		v3.6h-0.4l-0.1-0.5h0c-0.1,0.2-0.3,0.3-0.5,0.4c-0.2,0.1-0.4,0.1-0.7,0.1c-0.4,0-0.8-0.1-1-0.3c-0.2-0.2-0.3-0.5-0.3-1v-2.3H82.5z"
		/>
	<path class="st7" d="M86,168.5c0-0.1,0-0.2,0.1-0.3c0.1-0.1,0.1-0.1,0.2-0.1c0.1,0,0.2,0,0.2,0.1s0.1,0.1,0.1,0.3
		c0,0.1,0,0.2-0.1,0.3s-0.1,0.1-0.2,0.1c-0.1,0-0.2,0-0.2-0.1C86.1,168.8,86,168.7,86,168.5z M86.6,173.1h-0.5v-3.6h0.5V173.1z"/>
	<path class="st7" d="M88.9,172.7c0.1,0,0.2,0,0.3,0c0.1,0,0.2,0,0.2,0v0.4c-0.1,0-0.1,0.1-0.3,0.1c-0.1,0-0.2,0-0.3,0
		c-0.7,0-1-0.4-1-1.1v-2.1h-0.5v-0.3l0.5-0.2l0.2-0.8h0.3v0.8h1v0.4h-1v2.1c0,0.2,0.1,0.4,0.2,0.5S88.7,172.7,88.9,172.7z"/>
	<path class="st7" d="M89.5,169.5h0.6l0.8,2c0.2,0.5,0.3,0.8,0.3,1h0c0-0.1,0.1-0.3,0.2-0.6c0.1-0.3,0.4-1.1,0.9-2.5h0.6l-1.5,4.1
		c-0.2,0.4-0.3,0.7-0.5,0.9c-0.2,0.2-0.5,0.3-0.7,0.3c-0.2,0-0.3,0-0.5-0.1v-0.4c0.1,0,0.3,0,0.4,0c0.4,0,0.6-0.2,0.8-0.6l0.2-0.5
		L89.5,169.5z"/>
</g>
<g class="st6">
	<path class="st7" d="M30.7,93c-0.4,0-0.7,0.2-1,0.5c-0.2,0.3-0.3,0.8-0.3,1.3c0,1.2,0.4,1.8,1.3,1.8c0.4,0,0.8-0.1,1.3-0.3v0.9
		c-0.4,0.2-0.9,0.3-1.5,0.3c-0.8,0-1.4-0.2-1.8-0.7s-0.6-1.1-0.6-2c0-0.5,0.1-1,0.3-1.4s0.5-0.7,0.9-1s0.8-0.3,1.3-0.3
		c0.5,0,1,0.1,1.5,0.4l-0.4,0.9c-0.2-0.1-0.4-0.2-0.6-0.2C31.1,93,30.9,93,30.7,93z"/>
	<path class="st7" d="M35.4,93.3c0.1,0,0.3,0,0.4,0l-0.1,1c-0.1,0-0.2,0-0.3,0c-0.4,0-0.6,0.1-0.8,0.3c-0.2,0.2-0.3,0.4-0.3,0.8v2.1
		h-1.1v-4H34l0.2,0.7h0.1c0.1-0.2,0.3-0.4,0.5-0.5S35.1,93.3,35.4,93.3z"/>
	<path class="st7" d="M38.3,97.5c-0.7,0-1.2-0.2-1.5-0.5s-0.5-0.9-0.5-1.5c0-0.7,0.2-1.2,0.5-1.6s0.8-0.6,1.4-0.6
		c0.6,0,1,0.2,1.3,0.5c0.3,0.3,0.5,0.8,0.5,1.3v0.5h-2.6c0,0.3,0.1,0.6,0.3,0.7c0.2,0.2,0.4,0.3,0.7,0.3c0.2,0,0.5,0,0.7-0.1
		c0.2-0.1,0.4-0.1,0.7-0.2v0.9c-0.2,0.1-0.4,0.2-0.6,0.2C38.9,97.4,38.6,97.5,38.3,97.5z M38.2,94.1c-0.2,0-0.4,0.1-0.5,0.2
		s-0.2,0.4-0.2,0.6h1.5c0-0.3-0.1-0.5-0.2-0.6C38.6,94.1,38.4,94.1,38.2,94.1z"/>
	<path class="st7" d="M43.4,97.4l-0.2-0.5h0c-0.2,0.2-0.4,0.4-0.6,0.5c-0.2,0.1-0.5,0.1-0.8,0.1c-0.4,0-0.7-0.1-0.9-0.3
		c-0.2-0.2-0.3-0.5-0.3-0.9c0-0.4,0.2-0.7,0.5-1s0.8-0.3,1.4-0.3l0.7,0v-0.2c0-0.4-0.2-0.6-0.6-0.6c-0.3,0-0.7,0.1-1.1,0.3L41,93.6
		c0.5-0.2,1-0.4,1.5-0.4c0.5,0,1,0.1,1.2,0.4s0.4,0.6,0.4,1.1v2.7H43.4z M43.1,95.5l-0.4,0c-0.3,0-0.6,0.1-0.7,0.2
		c-0.2,0.1-0.2,0.3-0.2,0.5c0,0.3,0.2,0.5,0.5,0.5c0.3,0,0.5-0.1,0.6-0.2s0.2-0.3,0.2-0.6V95.5z"/>
	<path class="st7" d="M47,96.6c0.2,0,0.4,0,0.7-0.1v0.8c-0.3,0.1-0.6,0.2-1,0.2c-0.4,0-0.8-0.1-1-0.3c-0.2-0.2-0.3-0.6-0.3-1v-2
		h-0.5v-0.5l0.6-0.4l0.3-0.9h0.7v0.9h1.1v0.8h-1.1v2c0,0.2,0,0.3,0.1,0.3C46.8,96.6,46.9,96.6,47,96.6z"/>
	<path class="st7" d="M50.4,97.5c-0.7,0-1.2-0.2-1.5-0.5s-0.5-0.9-0.5-1.5c0-0.7,0.2-1.2,0.5-1.6s0.8-0.6,1.4-0.6
		c0.6,0,1,0.2,1.3,0.5c0.3,0.3,0.5,0.8,0.5,1.3v0.5h-2.6c0,0.3,0.1,0.6,0.3,0.7c0.2,0.2,0.4,0.3,0.7,0.3c0.2,0,0.5,0,0.7-0.1
		c0.2-0.1,0.4-0.1,0.7-0.2v0.9c-0.2,0.1-0.4,0.2-0.6,0.2C51,97.4,50.7,97.5,50.4,97.5z M50.2,94.1c-0.2,0-0.4,0.1-0.5,0.2
		s-0.2,0.4-0.2,0.6H51c0-0.3-0.1-0.5-0.2-0.6C50.7,94.1,50.5,94.1,50.2,94.1z"/>
</g>
<g class="st6">
	<path class="st7" d="M29.8,102.5c0,0.8-0.2,1.4-0.6,1.8c-0.4,0.4-1,0.6-1.8,0.6H26v-4.8h1.5c0.7,0,1.3,0.2,1.7,0.6
		C29.6,101.2,29.8,101.7,29.8,102.5z M29.2,102.5c0-0.6-0.2-1.1-0.5-1.4s-0.8-0.5-1.4-0.5h-0.8v3.8h0.7c0.7,0,1.2-0.2,1.5-0.5
		C29,103.6,29.2,103.1,29.2,102.5z"/>
	<path class="st7" d="M32.3,105c-0.5,0-0.9-0.2-1.2-0.5s-0.5-0.8-0.5-1.3c0-0.6,0.1-1,0.4-1.4c0.3-0.3,0.7-0.5,1.1-0.5
		c0.4,0,0.8,0.1,1.1,0.4c0.3,0.3,0.4,0.7,0.4,1.2v0.3h-2.5c0,0.4,0.1,0.7,0.3,1c0.2,0.2,0.5,0.3,0.8,0.3c0.4,0,0.8-0.1,1.1-0.2v0.5
		c-0.2,0.1-0.4,0.1-0.5,0.2C32.7,105,32.5,105,32.3,105z M32.1,101.7c-0.3,0-0.5,0.1-0.7,0.3c-0.2,0.2-0.3,0.4-0.3,0.8H33
		c0-0.3-0.1-0.6-0.2-0.8C32.6,101.8,32.4,101.7,32.1,101.7z"/>
	<path class="st7" d="M36.8,103.9c0,0.3-0.1,0.6-0.4,0.8c-0.2,0.2-0.6,0.3-1,0.3c-0.5,0-0.8-0.1-1.1-0.2v-0.5
		c0.2,0.1,0.4,0.2,0.6,0.2c0.2,0,0.4,0.1,0.6,0.1c0.3,0,0.5,0,0.7-0.1c0.2-0.1,0.2-0.2,0.2-0.4c0-0.1-0.1-0.3-0.2-0.4
		c-0.1-0.1-0.4-0.2-0.7-0.3c-0.3-0.1-0.6-0.2-0.7-0.3c-0.1-0.1-0.2-0.2-0.3-0.3s-0.1-0.3-0.1-0.4c0-0.3,0.1-0.5,0.4-0.7
		c0.2-0.2,0.6-0.3,1-0.3c0.4,0,0.8,0.1,1.1,0.2l-0.2,0.4c-0.4-0.1-0.7-0.2-1-0.2c-0.3,0-0.4,0-0.6,0.1s-0.2,0.2-0.2,0.3
		c0,0.1,0,0.2,0.1,0.2c0,0.1,0.1,0.1,0.2,0.2c0.1,0.1,0.3,0.1,0.6,0.3c0.4,0.2,0.7,0.3,0.9,0.5C36.7,103.5,36.8,103.7,36.8,103.9z"
		/>
	<path class="st7" d="M37.6,100.4c0-0.1,0-0.2,0.1-0.3c0.1-0.1,0.1-0.1,0.2-0.1c0.1,0,0.2,0,0.2,0.1s0.1,0.1,0.1,0.3
		c0,0.1,0,0.2-0.1,0.3s-0.1,0.1-0.2,0.1c-0.1,0-0.2,0-0.2-0.1C37.7,100.6,37.6,100.5,37.6,100.4z M38.2,104.9h-0.5v-3.6h0.5V104.9z"
		/>
	<path class="st7" d="M42.3,101.3v0.3l-0.7,0.1c0.1,0.1,0.1,0.2,0.2,0.3c0,0.1,0.1,0.3,0.1,0.4c0,0.3-0.1,0.6-0.4,0.8
		c-0.2,0.2-0.6,0.3-1,0.3c-0.1,0-0.2,0-0.3,0c-0.2,0.1-0.3,0.3-0.3,0.5c0,0.1,0,0.2,0.1,0.2c0.1,0,0.2,0.1,0.4,0.1H41
		c0.4,0,0.7,0.1,0.9,0.2c0.2,0.2,0.3,0.4,0.3,0.7c0,0.4-0.2,0.7-0.5,0.9c-0.3,0.2-0.8,0.3-1.4,0.3c-0.5,0-0.8-0.1-1.1-0.3
		s-0.4-0.4-0.4-0.7c0-0.2,0.1-0.4,0.2-0.6c0.1-0.2,0.3-0.3,0.6-0.3c-0.1,0-0.2-0.1-0.2-0.2c-0.1-0.1-0.1-0.2-0.1-0.3
		c0-0.1,0-0.2,0.1-0.3c0.1-0.1,0.2-0.2,0.3-0.3c-0.2-0.1-0.3-0.2-0.5-0.4c-0.1-0.2-0.2-0.4-0.2-0.6c0-0.4,0.1-0.7,0.4-0.9
		c0.2-0.2,0.6-0.3,1-0.3c0.2,0,0.4,0,0.5,0.1H42.3z M39.4,105.5c0,0.2,0.1,0.3,0.2,0.4c0.2,0.1,0.4,0.1,0.7,0.1c0.5,0,0.8-0.1,1-0.2
		s0.3-0.3,0.3-0.6c0-0.2-0.1-0.3-0.2-0.4c-0.1-0.1-0.3-0.1-0.7-0.1h-0.6c-0.2,0-0.4,0.1-0.6,0.2C39.5,105.1,39.4,105.3,39.4,105.5z
		 M39.7,102.5c0,0.3,0.1,0.4,0.2,0.6s0.3,0.2,0.6,0.2c0.5,0,0.8-0.3,0.8-0.8c0-0.5-0.3-0.8-0.8-0.8c-0.3,0-0.4,0.1-0.6,0.2
		S39.7,102.2,39.7,102.5z"/>
	<path class="st7" d="M45.5,104.9v-2.3c0-0.3-0.1-0.5-0.2-0.7c-0.1-0.1-0.3-0.2-0.6-0.2c-0.4,0-0.6,0.1-0.8,0.3
		c-0.2,0.2-0.3,0.5-0.3,1v1.9H43v-3.6h0.4l0.1,0.5h0c0.1-0.2,0.3-0.3,0.5-0.4c0.2-0.1,0.4-0.1,0.7-0.1c0.4,0,0.8,0.1,1,0.3
		c0.2,0.2,0.3,0.5,0.3,1v2.3H45.5z"/>
	<path class="st7" d="M48.6,103.7c0-0.3,0.1-0.5,0.2-0.7s0.4-0.4,0.8-0.7c-0.2-0.2-0.3-0.4-0.4-0.5s-0.1-0.2-0.2-0.3
		s-0.1-0.2-0.1-0.4c0-0.3,0.1-0.6,0.3-0.8c0.2-0.2,0.5-0.3,0.9-0.3c0.4,0,0.6,0.1,0.8,0.3c0.2,0.2,0.3,0.4,0.3,0.8
		c0,0.2-0.1,0.4-0.2,0.6c-0.1,0.2-0.4,0.4-0.7,0.6l1.3,1.3c0.1-0.1,0.2-0.3,0.3-0.5c0.1-0.2,0.1-0.4,0.2-0.6h0.5
		c-0.1,0.6-0.4,1.1-0.7,1.4l1,0.9h-0.7l-0.6-0.6c-0.3,0.2-0.5,0.4-0.8,0.5c-0.3,0.1-0.6,0.2-0.9,0.2c-0.5,0-0.8-0.1-1.1-0.3
		C48.8,104.4,48.6,104.1,48.6,103.7z M50.1,104.5c0.5,0,1-0.2,1.3-0.5l-1.4-1.4c-0.2,0.1-0.4,0.3-0.5,0.4c-0.1,0.1-0.2,0.2-0.2,0.3
		c0,0.1-0.1,0.2-0.1,0.4c0,0.3,0.1,0.5,0.3,0.6C49.6,104.4,49.8,104.5,50.1,104.5z M49.6,101.1c0,0.1,0,0.3,0.1,0.4
		c0.1,0.1,0.2,0.3,0.4,0.5c0.3-0.2,0.5-0.3,0.6-0.5c0.1-0.1,0.2-0.3,0.2-0.5c0-0.2-0.1-0.3-0.2-0.4c-0.1-0.1-0.3-0.2-0.4-0.2
		c-0.2,0-0.4,0.1-0.5,0.2C49.7,100.8,49.6,100.9,49.6,101.1z"/>
</g>
<g class="st6">
	<path class="st7" d="M19.4,112.4l-1.4-3.6h0.6l0.8,2.1c0.2,0.5,0.3,0.8,0.3,1h0c0-0.1,0.1-0.4,0.2-0.7s0.4-1.2,0.9-2.4h0.6
		l-1.4,3.6H19.4z"/>
	<path class="st7" d="M24.2,112.4l-0.1-0.5h0c-0.2,0.2-0.4,0.4-0.5,0.5c-0.2,0.1-0.4,0.1-0.7,0.1c-0.4,0-0.6-0.1-0.8-0.3
		c-0.2-0.2-0.3-0.4-0.3-0.8c0-0.7,0.6-1.1,1.7-1.1l0.6,0v-0.2c0-0.3-0.1-0.5-0.2-0.6s-0.3-0.2-0.6-0.2c-0.3,0-0.6,0.1-1,0.3
		l-0.2-0.4c0.2-0.1,0.4-0.2,0.6-0.2c0.2-0.1,0.4-0.1,0.6-0.1c0.4,0,0.7,0.1,0.9,0.3c0.2,0.2,0.3,0.5,0.3,0.9v2.4H24.2z M23,112
		c0.3,0,0.6-0.1,0.8-0.3c0.2-0.2,0.3-0.4,0.3-0.8v-0.3l-0.5,0c-0.4,0-0.7,0.1-0.9,0.2s-0.3,0.3-0.3,0.6c0,0.2,0.1,0.3,0.2,0.4
		C22.6,112,22.7,112,23,112z"/>
	<path class="st7" d="M26.2,112.4h-0.5v-5.1h0.5V112.4z"/>
	<path class="st7" d="M27.9,108.9v2.3c0,0.3,0.1,0.5,0.2,0.7s0.3,0.2,0.6,0.2c0.4,0,0.6-0.1,0.8-0.3c0.2-0.2,0.3-0.5,0.3-1v-1.9h0.5
		v3.6h-0.4l-0.1-0.5h0c-0.1,0.2-0.3,0.3-0.5,0.4c-0.2,0.1-0.4,0.1-0.7,0.1c-0.4,0-0.8-0.1-1-0.3c-0.2-0.2-0.3-0.5-0.3-1v-2.3H27.9z"
		/>
	<path class="st7" d="M33,112.5c-0.5,0-0.9-0.2-1.2-0.5s-0.5-0.8-0.5-1.3c0-0.6,0.1-1,0.4-1.4c0.3-0.3,0.7-0.5,1.1-0.5
		c0.4,0,0.8,0.1,1.1,0.4c0.3,0.3,0.4,0.7,0.4,1.2v0.3h-2.5c0,0.4,0.1,0.7,0.3,1c0.2,0.2,0.5,0.3,0.8,0.3c0.4,0,0.8-0.1,1.1-0.2v0.5
		c-0.2,0.1-0.4,0.1-0.5,0.2C33.4,112.5,33.2,112.5,33,112.5z M32.8,109.2c-0.3,0-0.5,0.1-0.7,0.3c-0.2,0.2-0.3,0.4-0.3,0.8h1.9
		c0-0.3-0.1-0.6-0.2-0.8C33.3,109.3,33.1,109.2,32.8,109.2z"/>
	<path class="st7" d="M39.1,112.4l-0.1-0.5h0c-0.2,0.2-0.4,0.4-0.5,0.5c-0.2,0.1-0.4,0.1-0.7,0.1c-0.4,0-0.6-0.1-0.8-0.3
		c-0.2-0.2-0.3-0.4-0.3-0.8c0-0.7,0.6-1.1,1.7-1.1l0.6,0v-0.2c0-0.3-0.1-0.5-0.2-0.6s-0.3-0.2-0.6-0.2c-0.3,0-0.6,0.1-1,0.3
		l-0.2-0.4c0.2-0.1,0.4-0.2,0.6-0.2c0.2-0.1,0.4-0.1,0.6-0.1c0.4,0,0.7,0.1,0.9,0.3c0.2,0.2,0.3,0.5,0.3,0.9v2.4H39.1z M37.9,112
		c0.3,0,0.6-0.1,0.8-0.3c0.2-0.2,0.3-0.4,0.3-0.8v-0.3l-0.5,0c-0.4,0-0.7,0.1-0.9,0.2s-0.3,0.3-0.3,0.6c0,0.2,0.1,0.3,0.2,0.4
		C37.5,112,37.7,112,37.9,112z"/>
	<path class="st7" d="M43.1,111.9L43.1,111.9c-0.3,0.4-0.7,0.5-1.1,0.5c-0.5,0-0.8-0.2-1.1-0.5c-0.3-0.3-0.4-0.8-0.4-1.4
		c0-0.6,0.1-1,0.4-1.4c0.3-0.3,0.6-0.5,1.1-0.5c0.5,0,0.9,0.2,1.1,0.5h0l0-0.3l0-0.3v-1.5h0.5v5.1h-0.4L43.1,111.9z M42,112
		c0.4,0,0.6-0.1,0.8-0.3c0.2-0.2,0.2-0.5,0.2-1v-0.1c0-0.5-0.1-0.9-0.3-1.1c-0.2-0.2-0.4-0.3-0.8-0.3c-0.3,0-0.6,0.1-0.7,0.4
		c-0.2,0.2-0.3,0.6-0.3,1c0,0.5,0.1,0.8,0.3,1C41.4,111.9,41.7,112,42,112z"/>
	<path class="st7" d="M47.2,111.9L47.2,111.9c-0.3,0.4-0.7,0.5-1.1,0.5c-0.5,0-0.8-0.2-1.1-0.5c-0.3-0.3-0.4-0.8-0.4-1.4
		c0-0.6,0.1-1,0.4-1.4c0.3-0.3,0.6-0.5,1.1-0.5c0.5,0,0.9,0.2,1.1,0.5h0l0-0.3l0-0.3v-1.5h0.5v5.1h-0.4L47.2,111.9z M46.1,112
		c0.4,0,0.6-0.1,0.8-0.3c0.2-0.2,0.2-0.5,0.2-1v-0.1c0-0.5-0.1-0.9-0.3-1.1c-0.2-0.2-0.4-0.3-0.8-0.3c-0.3,0-0.6,0.1-0.7,0.4
		c-0.2,0.2-0.3,0.6-0.3,1c0,0.5,0.1,0.8,0.3,1C45.5,111.9,45.8,112,46.1,112z"/>
	<path class="st7" d="M48.8,107.9c0-0.1,0-0.2,0.1-0.3c0.1-0.1,0.1-0.1,0.2-0.1c0.1,0,0.2,0,0.2,0.1s0.1,0.1,0.1,0.3
		c0,0.1,0,0.2-0.1,0.3s-0.1,0.1-0.2,0.1c-0.1,0-0.2,0-0.2-0.1C48.8,108.1,48.8,108,48.8,107.9z M49.4,112.4h-0.5v-3.6h0.5V112.4z"/>
	<path class="st7" d="M51.7,112c0.1,0,0.2,0,0.3,0c0.1,0,0.2,0,0.2,0v0.4c-0.1,0-0.1,0.1-0.3,0.1c-0.1,0-0.2,0-0.3,0
		c-0.7,0-1-0.4-1-1.1v-2.1H50V109l0.5-0.2l0.2-0.8h0.3v0.8h1v0.4h-1v2.1c0,0.2,0.1,0.4,0.2,0.5S51.5,112,51.7,112z"/>
	<path class="st7" d="M52.8,107.9c0-0.1,0-0.2,0.1-0.3c0.1-0.1,0.1-0.1,0.2-0.1c0.1,0,0.2,0,0.2,0.1s0.1,0.1,0.1,0.3
		c0,0.1,0,0.2-0.1,0.3s-0.1,0.1-0.2,0.1c-0.1,0-0.2,0-0.2-0.1C52.9,108.1,52.8,108,52.8,107.9z M53.4,112.4h-0.5v-3.6h0.5V112.4z"/>
	<path class="st7" d="M57.6,110.6c0,0.6-0.1,1-0.4,1.4c-0.3,0.3-0.7,0.5-1.2,0.5c-0.3,0-0.6-0.1-0.8-0.2c-0.2-0.2-0.4-0.4-0.6-0.6
		c-0.1-0.3-0.2-0.6-0.2-1c0-0.6,0.1-1,0.4-1.4c0.3-0.3,0.7-0.5,1.2-0.5c0.5,0,0.9,0.2,1.2,0.5C57.5,109.6,57.6,110.1,57.6,110.6z
		 M54.9,110.6c0,0.5,0.1,0.8,0.3,1c0.2,0.2,0.5,0.4,0.8,0.4s0.6-0.1,0.8-0.4c0.2-0.2,0.3-0.6,0.3-1c0-0.5-0.1-0.8-0.3-1
		s-0.5-0.4-0.8-0.4c-0.4,0-0.6,0.1-0.8,0.3S54.9,110.2,54.9,110.6z"/>
	<path class="st7" d="M61,112.4v-2.3c0-0.3-0.1-0.5-0.2-0.7c-0.1-0.1-0.3-0.2-0.6-0.2c-0.4,0-0.6,0.1-0.8,0.3
		c-0.2,0.2-0.3,0.5-0.3,1v1.9h-0.5v-3.6H59l0.1,0.5h0c0.1-0.2,0.3-0.3,0.5-0.4c0.2-0.1,0.4-0.1,0.7-0.1c0.4,0,0.8,0.1,1,0.3
		c0.2,0.2,0.3,0.5,0.3,1v2.3H61z"/>
</g>
<g class="st6">
	<path class="st7" d="M119.7,34.7c-0.4,0-0.7,0.2-1,0.5c-0.2,0.3-0.3,0.8-0.3,1.3c0,1.2,0.4,1.8,1.3,1.8c0.4,0,0.8-0.1,1.3-0.3v0.9
		c-0.4,0.2-0.9,0.3-1.5,0.3c-0.8,0-1.4-0.2-1.8-0.7c-0.4-0.5-0.6-1.1-0.6-2c0-0.5,0.1-1,0.3-1.4s0.5-0.7,0.9-1s0.8-0.3,1.3-0.3
		c0.5,0,1,0.1,1.5,0.4l-0.4,0.9c-0.2-0.1-0.4-0.2-0.6-0.2C120,34.7,119.8,34.7,119.7,34.7z"/>
	<path class="st7" d="M125.7,37.1c0,0.7-0.2,1.2-0.5,1.5c-0.3,0.4-0.8,0.6-1.5,0.6c-0.4,0-0.7-0.1-1-0.3c-0.3-0.2-0.5-0.4-0.7-0.7
		s-0.2-0.7-0.2-1.1c0-0.7,0.2-1.2,0.5-1.5c0.3-0.4,0.8-0.5,1.5-0.5c0.4,0,0.7,0.1,1,0.3s0.5,0.4,0.7,0.7
		C125.6,36.3,125.7,36.6,125.7,37.1z M122.9,37.1c0,0.4,0.1,0.7,0.2,0.9c0.1,0.2,0.3,0.3,0.6,0.3c0.3,0,0.5-0.1,0.6-0.3
		c0.1-0.2,0.2-0.5,0.2-0.9c0-0.4-0.1-0.7-0.2-0.9c-0.1-0.2-0.3-0.3-0.6-0.3c-0.3,0-0.5,0.1-0.6,0.3S122.9,36.7,122.9,37.1z"/>
	<path class="st7" d="M130.4,39.1h-1.1v-2.4c0-0.3-0.1-0.5-0.2-0.7c-0.1-0.1-0.3-0.2-0.5-0.2c-0.3,0-0.5,0.1-0.7,0.3s-0.2,0.5-0.2,1
		v1.9h-1.1v-4h0.8l0.1,0.5h0.1c0.1-0.2,0.3-0.3,0.5-0.4c0.2-0.1,0.5-0.2,0.7-0.2c0.5,0,0.8,0.1,1.1,0.4c0.2,0.3,0.4,0.6,0.4,1.1
		V39.1z"/>
	<path class="st7" d="M134.3,37.9c0,0.4-0.1,0.7-0.4,0.9c-0.3,0.2-0.7,0.3-1.3,0.3c-0.3,0-0.5,0-0.8-0.1c-0.2,0-0.4-0.1-0.6-0.2V38
		c0.2,0.1,0.4,0.2,0.7,0.2c0.3,0.1,0.5,0.1,0.7,0.1c0.4,0,0.6-0.1,0.6-0.3c0-0.1,0-0.2-0.1-0.2c-0.1-0.1-0.1-0.1-0.3-0.2
		c-0.1-0.1-0.3-0.1-0.5-0.2c-0.3-0.1-0.5-0.3-0.7-0.4c-0.1-0.1-0.3-0.2-0.3-0.4c-0.1-0.1-0.1-0.3-0.1-0.5c0-0.4,0.1-0.6,0.4-0.8
		c0.3-0.2,0.7-0.3,1.2-0.3c0.5,0,1,0.1,1.4,0.3l-0.3,0.8c-0.2-0.1-0.4-0.2-0.6-0.2c-0.2-0.1-0.4-0.1-0.5-0.1c-0.3,0-0.5,0.1-0.5,0.3
		c0,0.1,0.1,0.2,0.2,0.3c0.1,0.1,0.3,0.2,0.7,0.3c0.3,0.1,0.5,0.2,0.7,0.4c0.1,0.1,0.3,0.2,0.3,0.4S134.3,37.7,134.3,37.9z"/>
	<path class="st7" d="M136.9,38.3c0.2,0,0.4,0,0.7-0.1V39c-0.3,0.1-0.6,0.2-1,0.2c-0.4,0-0.8-0.1-1-0.3c-0.2-0.2-0.3-0.6-0.3-1v-2
		h-0.5v-0.5l0.6-0.4l0.3-0.9h0.7V35h1.1v0.8h-1.1v2c0,0.2,0,0.3,0.1,0.3C136.6,38.2,136.7,38.3,136.9,38.3z"/>
	<path class="st7" d="M140.7,35c0.1,0,0.3,0,0.4,0l-0.1,1c-0.1,0-0.2,0-0.3,0c-0.4,0-0.6,0.1-0.8,0.3s-0.3,0.4-0.3,0.8v2.1h-1.1v-4
		h0.8l0.2,0.7h0.1c0.1-0.2,0.3-0.4,0.5-0.5C140.2,35,140.4,35,140.7,35z"/>
	<path class="st7" d="M144.6,39.1l-0.1-0.5h-0.1c-0.1,0.2-0.3,0.3-0.5,0.4c-0.2,0.1-0.5,0.2-0.7,0.2c-0.5,0-0.8-0.1-1.1-0.4
		c-0.2-0.3-0.4-0.6-0.4-1.1V35h1.1v2.4c0,0.3,0.1,0.5,0.2,0.7c0.1,0.1,0.3,0.2,0.5,0.2c0.3,0,0.5-0.1,0.7-0.3c0.1-0.2,0.2-0.5,0.2-1
		V35h1.1v4H144.6z"/>
	<path class="st7" d="M148.3,39.2c-1.3,0-1.9-0.7-1.9-2.1c0-0.7,0.2-1.2,0.5-1.6c0.3-0.4,0.8-0.5,1.5-0.5c0.5,0,0.9,0.1,1.3,0.3
		l-0.3,0.9c-0.2-0.1-0.3-0.1-0.5-0.2s-0.3-0.1-0.4-0.1c-0.6,0-0.9,0.4-0.9,1.2c0,0.8,0.3,1.2,0.9,1.2c0.2,0,0.4,0,0.6-0.1
		c0.2-0.1,0.4-0.1,0.5-0.3v0.9c-0.2,0.1-0.4,0.2-0.5,0.2C148.8,39.1,148.6,39.2,148.3,39.2z"/>
	<path class="st7" d="M152.1,38.3c0.2,0,0.4,0,0.7-0.1V39c-0.3,0.1-0.6,0.2-1,0.2c-0.4,0-0.8-0.1-1-0.3c-0.2-0.2-0.3-0.6-0.3-1v-2
		H150v-0.5l0.6-0.4l0.3-0.9h0.7V35h1.1v0.8h-1.1v2c0,0.2,0,0.3,0.1,0.3S152,38.3,152.1,38.3z"/>
</g>
<g class="st6">
	<path class="st7" d="M126.2,46.6l-1.6-4.2h0c0,0.3,0,0.7,0,1.2v3h-0.5v-4.8h0.8l1.5,3.9h0l1.5-3.9h0.8v4.8h-0.6v-3.1
		c0-0.4,0-0.7,0-1.1h0l-1.6,4.2H126.2z"/>
	<path class="st7" d="M133.1,44.8c0,0.6-0.1,1-0.4,1.4c-0.3,0.3-0.7,0.5-1.2,0.5c-0.3,0-0.6-0.1-0.8-0.2c-0.2-0.2-0.4-0.4-0.6-0.6
		s-0.2-0.6-0.2-1c0-0.6,0.1-1,0.4-1.4c0.3-0.3,0.7-0.5,1.2-0.5c0.5,0,0.9,0.2,1.2,0.5C133,43.8,133.1,44.2,133.1,44.8z M130.4,44.8
		c0,0.5,0.1,0.8,0.3,1c0.2,0.2,0.5,0.4,0.8,0.4c0.4,0,0.6-0.1,0.8-0.4c0.2-0.2,0.3-0.6,0.3-1c0-0.5-0.1-0.8-0.3-1s-0.5-0.4-0.8-0.4
		c-0.4,0-0.6,0.1-0.8,0.3C130.5,44,130.4,44.4,130.4,44.8z"/>
	<path class="st7" d="M135.8,43c0.5,0,0.8,0.2,1.1,0.5s0.4,0.8,0.4,1.4s-0.1,1-0.4,1.4c-0.3,0.3-0.6,0.5-1.1,0.5
		c-0.2,0-0.4,0-0.6-0.1s-0.4-0.2-0.5-0.4h0l-0.1,0.5h-0.4v-5.1h0.5v1.2c0,0.3,0,0.5,0,0.7h0C134.9,43.1,135.3,43,135.8,43z
		 M135.7,43.4c-0.4,0-0.6,0.1-0.8,0.3c-0.2,0.2-0.2,0.6-0.2,1.1s0.1,0.9,0.3,1.1c0.2,0.2,0.4,0.3,0.8,0.3c0.3,0,0.6-0.1,0.7-0.4
		c0.2-0.2,0.2-0.6,0.2-1c0-0.5-0.1-0.8-0.2-1C136.3,43.5,136,43.4,135.7,43.4z"/>
	<path class="st7" d="M138.1,42.1c0-0.1,0-0.2,0.1-0.3s0.1-0.1,0.2-0.1c0.1,0,0.2,0,0.2,0.1c0.1,0.1,0.1,0.1,0.1,0.3
		c0,0.1,0,0.2-0.1,0.3c-0.1,0.1-0.1,0.1-0.2,0.1c-0.1,0-0.2,0-0.2-0.1S138.1,42.2,138.1,42.1z M138.7,46.6h-0.5V43h0.5V46.6z"/>
	<path class="st7" d="M140.4,46.6h-0.5v-5.1h0.5V46.6z"/>
	<path class="st7" d="M143.1,46.7c-0.5,0-0.9-0.2-1.2-0.5c-0.3-0.3-0.5-0.8-0.5-1.3c0-0.6,0.1-1,0.4-1.4c0.3-0.3,0.7-0.5,1.1-0.5
		c0.4,0,0.8,0.1,1.1,0.4s0.4,0.7,0.4,1.2v0.3h-2.5c0,0.4,0.1,0.7,0.3,1c0.2,0.2,0.5,0.3,0.8,0.3c0.4,0,0.8-0.1,1.1-0.2v0.5
		c-0.2,0.1-0.4,0.1-0.5,0.2C143.5,46.6,143.3,46.7,143.1,46.7z M142.9,43.4c-0.3,0-0.5,0.1-0.7,0.3c-0.2,0.2-0.3,0.4-0.3,0.8h1.9
		c0-0.3-0.1-0.6-0.2-0.8C143.4,43.5,143.2,43.4,142.9,43.4z"/>
	<path class="st7" d="M145.9,45.8L145.9,45.8c0,0.3-0.1,0.5-0.2,0.8c-0.1,0.3-0.2,0.6-0.3,0.8h-0.4c0.1-0.2,0.1-0.5,0.2-0.8
		c0.1-0.3,0.1-0.6,0.1-0.8H145.9z"/>
</g>
<g class="st6">
	<path class="st7" d="M122,54.1l-0.6-1.5h-1.9l-0.6,1.5h-0.6l1.9-4.8h0.5l1.9,4.8H122z M121.3,52.1l-0.6-1.5
		c-0.1-0.2-0.1-0.4-0.2-0.7c0,0.2-0.1,0.4-0.2,0.7l-0.6,1.5H121.3z"/>
	<path class="st7" d="M126.1,50.5v0.3l-0.7,0.1c0.1,0.1,0.1,0.2,0.2,0.3c0,0.1,0.1,0.3,0.1,0.4c0,0.3-0.1,0.6-0.4,0.8
		c-0.2,0.2-0.6,0.3-1,0.3c-0.1,0-0.2,0-0.3,0c-0.2,0.1-0.3,0.3-0.3,0.5c0,0.1,0,0.2,0.1,0.2c0.1,0,0.2,0.1,0.4,0.1h0.6
		c0.4,0,0.7,0.1,0.9,0.2s0.3,0.4,0.3,0.7c0,0.4-0.2,0.7-0.5,0.9c-0.3,0.2-0.8,0.3-1.4,0.3c-0.5,0-0.8-0.1-1.1-0.3s-0.4-0.4-0.4-0.7
		c0-0.2,0.1-0.4,0.2-0.6c0.1-0.2,0.3-0.3,0.6-0.3c-0.1,0-0.2-0.1-0.2-0.2c-0.1-0.1-0.1-0.2-0.1-0.3c0-0.1,0-0.2,0.1-0.3
		s0.2-0.2,0.3-0.3c-0.2-0.1-0.3-0.2-0.5-0.4s-0.2-0.4-0.2-0.6c0-0.4,0.1-0.7,0.4-0.9c0.2-0.2,0.6-0.3,1-0.3c0.2,0,0.4,0,0.5,0.1
		H126.1z M123.2,54.7c0,0.2,0.1,0.3,0.2,0.4c0.2,0.1,0.4,0.1,0.7,0.1c0.5,0,0.8-0.1,1-0.2c0.2-0.1,0.3-0.3,0.3-0.6
		c0-0.2-0.1-0.3-0.2-0.4c-0.1-0.1-0.3-0.1-0.7-0.1H124c-0.2,0-0.4,0.1-0.6,0.2C123.3,54.3,123.2,54.5,123.2,54.7z M123.5,51.7
		c0,0.3,0.1,0.4,0.2,0.6c0.1,0.1,0.3,0.2,0.6,0.2c0.5,0,0.8-0.3,0.8-0.8c0-0.5-0.3-0.8-0.8-0.8c-0.3,0-0.4,0.1-0.6,0.2
		S123.5,51.4,123.5,51.7z"/>
	<path class="st7" d="M129.7,50.5v0.3l-0.7,0.1c0.1,0.1,0.1,0.2,0.2,0.3c0,0.1,0.1,0.3,0.1,0.4c0,0.3-0.1,0.6-0.4,0.8
		c-0.2,0.2-0.6,0.3-1,0.3c-0.1,0-0.2,0-0.3,0c-0.2,0.1-0.3,0.3-0.3,0.5c0,0.1,0,0.2,0.1,0.2s0.2,0.1,0.4,0.1h0.6
		c0.4,0,0.7,0.1,0.9,0.2c0.2,0.2,0.3,0.4,0.3,0.7c0,0.4-0.2,0.7-0.5,0.9c-0.3,0.2-0.8,0.3-1.4,0.3c-0.5,0-0.8-0.1-1.1-0.3
		s-0.4-0.4-0.4-0.7c0-0.2,0.1-0.4,0.2-0.6c0.1-0.2,0.3-0.3,0.6-0.3c-0.1,0-0.2-0.1-0.2-0.2c-0.1-0.1-0.1-0.2-0.1-0.3
		c0-0.1,0-0.2,0.1-0.3c0.1-0.1,0.2-0.2,0.3-0.3c-0.2-0.1-0.3-0.2-0.5-0.4c-0.1-0.2-0.2-0.4-0.2-0.6c0-0.4,0.1-0.7,0.4-0.9
		c0.2-0.2,0.6-0.3,1-0.3c0.2,0,0.4,0,0.5,0.1H129.7z M126.9,54.7c0,0.2,0.1,0.3,0.2,0.4s0.4,0.1,0.7,0.1c0.5,0,0.8-0.1,1-0.2
		c0.2-0.1,0.3-0.3,0.3-0.6c0-0.2-0.1-0.3-0.2-0.4c-0.1-0.1-0.3-0.1-0.7-0.1h-0.6c-0.2,0-0.4,0.1-0.6,0.2S126.9,54.5,126.9,54.7z
		 M127.2,51.7c0,0.3,0.1,0.4,0.2,0.6c0.1,0.1,0.3,0.2,0.6,0.2c0.5,0,0.8-0.3,0.8-0.8c0-0.5-0.3-0.8-0.8-0.8c-0.3,0-0.4,0.1-0.6,0.2
		S127.2,51.4,127.2,51.7z"/>
	<path class="st7" d="M132.1,50.5c0.2,0,0.3,0,0.4,0l-0.1,0.5c-0.1,0-0.3,0-0.4,0c-0.3,0-0.5,0.1-0.7,0.4s-0.3,0.5-0.3,0.9v1.9h-0.5
		v-3.6h0.4l0.1,0.7h0c0.1-0.2,0.3-0.4,0.5-0.5C131.7,50.5,131.9,50.5,132.1,50.5z"/>
	<path class="st7" d="M134.7,54.2c-0.5,0-0.9-0.2-1.2-0.5c-0.3-0.3-0.5-0.8-0.5-1.3c0-0.6,0.1-1,0.4-1.4c0.3-0.3,0.7-0.5,1.1-0.5
		c0.4,0,0.8,0.1,1.1,0.4s0.4,0.7,0.4,1.2v0.3h-2.5c0,0.4,0.1,0.7,0.3,1c0.2,0.2,0.5,0.3,0.8,0.3c0.4,0,0.8-0.1,1.1-0.2v0.5
		c-0.2,0.1-0.4,0.1-0.5,0.2C135.2,54.2,134.9,54.2,134.7,54.2z M134.6,50.9c-0.3,0-0.5,0.1-0.7,0.3c-0.2,0.2-0.3,0.4-0.3,0.8h1.9
		c0-0.3-0.1-0.6-0.2-0.8C135.1,51,134.8,50.9,134.6,50.9z"/>
	<path class="st7" d="M139.9,50.5v0.3l-0.7,0.1c0.1,0.1,0.1,0.2,0.2,0.3c0,0.1,0.1,0.3,0.1,0.4c0,0.3-0.1,0.6-0.4,0.8
		c-0.2,0.2-0.6,0.3-1,0.3c-0.1,0-0.2,0-0.3,0c-0.2,0.1-0.3,0.3-0.3,0.5c0,0.1,0,0.2,0.1,0.2s0.2,0.1,0.4,0.1h0.6
		c0.4,0,0.7,0.1,0.9,0.2c0.2,0.2,0.3,0.4,0.3,0.7c0,0.4-0.2,0.7-0.5,0.9c-0.3,0.2-0.8,0.3-1.4,0.3c-0.5,0-0.8-0.1-1.1-0.3
		s-0.4-0.4-0.4-0.7c0-0.2,0.1-0.4,0.2-0.6c0.1-0.2,0.3-0.3,0.6-0.3c-0.1,0-0.2-0.1-0.2-0.2c-0.1-0.1-0.1-0.2-0.1-0.3
		c0-0.1,0-0.2,0.1-0.3c0.1-0.1,0.2-0.2,0.3-0.3c-0.2-0.1-0.3-0.2-0.5-0.4c-0.1-0.2-0.2-0.4-0.2-0.6c0-0.4,0.1-0.7,0.4-0.9
		c0.2-0.2,0.6-0.3,1-0.3c0.2,0,0.4,0,0.5,0.1H139.9z M137,54.7c0,0.2,0.1,0.3,0.2,0.4s0.4,0.1,0.7,0.1c0.5,0,0.8-0.1,1-0.2
		c0.2-0.1,0.3-0.3,0.3-0.6c0-0.2-0.1-0.3-0.2-0.4c-0.1-0.1-0.3-0.1-0.7-0.1h-0.6c-0.2,0-0.4,0.1-0.6,0.2S137,54.5,137,54.7z
		 M137.3,51.7c0,0.3,0.1,0.4,0.2,0.6c0.1,0.1,0.3,0.2,0.6,0.2c0.5,0,0.8-0.3,0.8-0.8c0-0.5-0.3-0.8-0.8-0.8c-0.3,0-0.4,0.1-0.6,0.2
		S137.3,51.4,137.3,51.7z"/>
	<path class="st7" d="M142.8,54.1l-0.1-0.5h0c-0.2,0.2-0.4,0.4-0.5,0.5s-0.4,0.1-0.7,0.1c-0.4,0-0.6-0.1-0.8-0.3
		c-0.2-0.2-0.3-0.4-0.3-0.8c0-0.7,0.6-1.1,1.7-1.1l0.6,0v-0.2c0-0.3-0.1-0.5-0.2-0.6c-0.1-0.1-0.3-0.2-0.6-0.2c-0.3,0-0.6,0.1-1,0.3
		l-0.2-0.4c0.2-0.1,0.4-0.2,0.6-0.2c0.2-0.1,0.4-0.1,0.6-0.1c0.4,0,0.7,0.1,0.9,0.3s0.3,0.5,0.3,0.9v2.4H142.8z M141.6,53.7
		c0.3,0,0.6-0.1,0.8-0.3c0.2-0.2,0.3-0.4,0.3-0.8v-0.3l-0.5,0c-0.4,0-0.7,0.1-0.9,0.2c-0.2,0.1-0.3,0.3-0.3,0.6
		c0,0.2,0.1,0.3,0.2,0.4C141.2,53.7,141.4,53.7,141.6,53.7z"/>
	<path class="st7" d="M145.5,53.7c0.1,0,0.2,0,0.3,0c0.1,0,0.2,0,0.2,0v0.4c-0.1,0-0.1,0.1-0.3,0.1c-0.1,0-0.2,0-0.3,0
		c-0.7,0-1-0.4-1-1.1V51h-0.5v-0.3l0.5-0.2l0.2-0.8h0.3v0.8h1V51h-1v2.1c0,0.2,0.1,0.4,0.2,0.5C145.1,53.7,145.3,53.7,145.5,53.7z"
		/>
	<path class="st7" d="M148.2,54.2c-0.5,0-0.9-0.2-1.2-0.5c-0.3-0.3-0.5-0.8-0.5-1.3c0-0.6,0.1-1,0.4-1.4c0.3-0.3,0.7-0.5,1.1-0.5
		c0.4,0,0.8,0.1,1.1,0.4c0.3,0.3,0.4,0.7,0.4,1.2v0.3H147c0,0.4,0.1,0.7,0.3,1c0.2,0.2,0.5,0.3,0.8,0.3c0.4,0,0.8-0.1,1.1-0.2v0.5
		c-0.2,0.1-0.4,0.1-0.5,0.2C148.6,54.2,148.4,54.2,148.2,54.2z M148,50.9c-0.3,0-0.5,0.1-0.7,0.3c-0.2,0.2-0.3,0.4-0.3,0.8h1.9
		c0-0.3-0.1-0.6-0.2-0.8C148.5,51,148.3,50.9,148,50.9z"/>
	<path class="st7" d="M151,53.3L151,53.3c0,0.3-0.1,0.5-0.2,0.8c-0.1,0.3-0.2,0.6-0.3,0.8H150c0.1-0.2,0.1-0.5,0.2-0.8
		c0.1-0.3,0.1-0.6,0.1-0.8H151z"/>
</g>
<g class="st6">
	<path class="st7" d="M122.3,59.2c0,0.8-0.2,1.4-0.6,1.8c-0.4,0.4-1,0.6-1.8,0.6h-1.3v-4.8h1.5c0.7,0,1.3,0.2,1.7,0.6
		C122.1,57.9,122.3,58.5,122.3,59.2z M121.7,59.2c0-0.6-0.2-1.1-0.5-1.4s-0.8-0.5-1.4-0.5H119v3.8h0.7c0.7,0,1.2-0.2,1.5-0.5
		C121.5,60.3,121.7,59.9,121.7,59.2z"/>
	<path class="st7" d="M124.8,61.7c-0.5,0-0.9-0.2-1.2-0.5c-0.3-0.3-0.5-0.8-0.5-1.3c0-0.6,0.1-1,0.4-1.4c0.3-0.3,0.7-0.5,1.1-0.5
		c0.4,0,0.8,0.1,1.1,0.4s0.4,0.7,0.4,1.2v0.3h-2.5c0,0.4,0.1,0.7,0.3,1c0.2,0.2,0.5,0.3,0.8,0.3c0.4,0,0.8-0.1,1.1-0.2v0.5
		c-0.2,0.1-0.4,0.1-0.5,0.2C125.2,61.7,125,61.7,124.8,61.7z M124.6,58.4c-0.3,0-0.5,0.1-0.7,0.3c-0.2,0.2-0.3,0.4-0.3,0.8h1.9
		c0-0.3-0.1-0.6-0.2-0.8C125.1,58.5,124.9,58.4,124.6,58.4z"/>
	<path class="st7" d="M128.5,61.7c-0.5,0-0.9-0.2-1.2-0.5c-0.3-0.3-0.5-0.8-0.5-1.3c0-0.6,0.1-1,0.4-1.4c0.3-0.3,0.7-0.5,1.1-0.5
		c0.4,0,0.8,0.1,1.1,0.4s0.4,0.7,0.4,1.2v0.3h-2.5c0,0.4,0.1,0.7,0.3,1c0.2,0.2,0.5,0.3,0.8,0.3c0.4,0,0.8-0.1,1.1-0.2v0.5
		c-0.2,0.1-0.4,0.1-0.5,0.2C129,61.7,128.8,61.7,128.5,61.7z M128.4,58.4c-0.3,0-0.5,0.1-0.7,0.3c-0.2,0.2-0.3,0.4-0.3,0.8h1.9
		c0-0.3-0.1-0.6-0.2-0.8C128.9,58.5,128.7,58.4,128.4,58.4z"/>
	<path class="st7" d="M132.4,61.7c-0.2,0-0.4,0-0.6-0.1s-0.4-0.2-0.5-0.4h0c0,0.2,0,0.4,0,0.6v1.5h-0.5v-5.2h0.4l0.1,0.5h0
		c0.1-0.2,0.3-0.3,0.5-0.4c0.2-0.1,0.4-0.1,0.6-0.1c0.5,0,0.8,0.2,1.1,0.5c0.3,0.3,0.4,0.8,0.4,1.4c0,0.6-0.1,1-0.4,1.4
		C133.2,61.5,132.9,61.7,132.4,61.7z M132.3,58.5c-0.4,0-0.6,0.1-0.8,0.3c-0.2,0.2-0.2,0.5-0.3,1v0.1c0,0.5,0.1,0.9,0.3,1.1
		c0.2,0.2,0.4,0.3,0.8,0.3c0.3,0,0.5-0.1,0.7-0.4c0.2-0.3,0.3-0.6,0.3-1c0-0.4-0.1-0.8-0.3-1C132.9,58.6,132.7,58.5,132.3,58.5z"/>
	<path class="st7" d="M139,61.6v-2.3c0-0.3-0.1-0.5-0.2-0.7c-0.1-0.1-0.3-0.2-0.6-0.2c-0.4,0-0.7,0.1-0.8,0.3
		c-0.2,0.2-0.3,0.5-0.3,1v1.9h-0.5v-5.1h0.5v1.5c0,0.2,0,0.3,0,0.5h0c0.1-0.2,0.3-0.3,0.5-0.4c0.2-0.1,0.4-0.1,0.7-0.1
		c0.4,0,0.8,0.1,1,0.3c0.2,0.2,0.3,0.5,0.3,1v2.3H139z"/>
	<path class="st7" d="M142.9,61.6l-0.1-0.5h0c-0.2,0.2-0.4,0.4-0.5,0.5c-0.2,0.1-0.4,0.1-0.7,0.1c-0.4,0-0.6-0.1-0.8-0.3
		c-0.2-0.2-0.3-0.4-0.3-0.8c0-0.7,0.6-1.1,1.7-1.1l0.6,0v-0.2c0-0.3-0.1-0.5-0.2-0.6c-0.1-0.1-0.3-0.2-0.6-0.2c-0.3,0-0.6,0.1-1,0.3
		l-0.2-0.4c0.2-0.1,0.4-0.2,0.6-0.2c0.2-0.1,0.4-0.1,0.6-0.1c0.4,0,0.7,0.1,0.9,0.3c0.2,0.2,0.3,0.5,0.3,0.9v2.4H142.9z M141.6,61.2
		c0.3,0,0.6-0.1,0.8-0.3s0.3-0.4,0.3-0.8v-0.3l-0.5,0c-0.4,0-0.7,0.1-0.9,0.2c-0.2,0.1-0.3,0.3-0.3,0.6c0,0.2,0.1,0.3,0.2,0.4
		C141.3,61.2,141.4,61.2,141.6,61.2z"/>
	<path class="st7" d="M146.8,61.6v-2.3c0-0.3-0.1-0.5-0.2-0.7c-0.1-0.1-0.3-0.2-0.6-0.2c-0.4,0-0.6,0.1-0.8,0.3
		c-0.2,0.2-0.3,0.5-0.3,1v1.9h-0.5v-3.6h0.4l0.1,0.5h0c0.1-0.2,0.3-0.3,0.5-0.4s0.4-0.1,0.7-0.1c0.4,0,0.8,0.1,1,0.3
		c0.2,0.2,0.3,0.5,0.3,1v2.3H146.8z"/>
	<path class="st7" d="M150.9,61.2L150.9,61.2c-0.3,0.4-0.7,0.5-1.2,0.5c-0.5,0-0.8-0.2-1.1-0.5c-0.3-0.3-0.4-0.8-0.4-1.4
		c0-0.6,0.1-1,0.4-1.4c0.3-0.3,0.6-0.5,1.1-0.5c0.5,0,0.9,0.2,1.1,0.5h0l0-0.3l0-0.3v-1.5h0.5v5.1H151L150.9,61.2z M149.8,61.2
		c0.4,0,0.6-0.1,0.8-0.3c0.2-0.2,0.3-0.5,0.3-1v-0.1c0-0.5-0.1-0.9-0.3-1.1c-0.2-0.2-0.4-0.3-0.8-0.3c-0.3,0-0.6,0.1-0.7,0.4
		c-0.2,0.2-0.3,0.6-0.3,1c0,0.5,0.1,0.8,0.3,1C149.3,61.1,149.5,61.2,149.8,61.2z"/>
</g>
<g class="st6">
	<path class="st7" d="M131,69.1v-2.3c0-0.3-0.1-0.5-0.2-0.7c-0.1-0.1-0.3-0.2-0.6-0.2c-0.4,0-0.6,0.1-0.8,0.3s-0.3,0.5-0.3,1v1.9
		h-0.5v-5.1h0.5v1.5c0,0.2,0,0.3,0,0.5h0c0.1-0.2,0.3-0.3,0.5-0.4c0.2-0.1,0.4-0.1,0.7-0.1c0.4,0,0.8,0.1,1,0.3
		c0.2,0.2,0.3,0.5,0.3,1v2.3H131z"/>
	<path class="st7" d="M135.7,67.4c0,0.6-0.1,1-0.4,1.4c-0.3,0.3-0.7,0.5-1.2,0.5c-0.3,0-0.6-0.1-0.8-0.2c-0.2-0.2-0.4-0.4-0.6-0.6
		c-0.1-0.3-0.2-0.6-0.2-1c0-0.6,0.1-1,0.4-1.4c0.3-0.3,0.7-0.5,1.2-0.5c0.5,0,0.9,0.2,1.2,0.5C135.6,66.3,135.7,66.8,135.7,67.4z
		 M133,67.4c0,0.5,0.1,0.8,0.3,1c0.2,0.2,0.5,0.4,0.8,0.4c0.4,0,0.6-0.1,0.8-0.4c0.2-0.2,0.3-0.6,0.3-1c0-0.5-0.1-0.8-0.3-1
		s-0.5-0.4-0.8-0.4c-0.4,0-0.6,0.1-0.8,0.3C133.1,66.5,133,66.9,133,67.4z"/>
	<path class="st7" d="M137.2,69.1h-0.5v-5.1h0.5V69.1z"/>
	<path class="st7" d="M140.8,68.7L140.8,68.7c-0.3,0.4-0.7,0.5-1.1,0.5c-0.5,0-0.8-0.2-1.1-0.5c-0.3-0.3-0.4-0.8-0.4-1.4
		c0-0.6,0.1-1,0.4-1.4c0.3-0.3,0.6-0.5,1.1-0.5c0.5,0,0.9,0.2,1.1,0.5h0l0-0.3l0-0.3v-1.5h0.5v5.1h-0.4L140.8,68.7z M139.7,68.8
		c0.4,0,0.6-0.1,0.8-0.3c0.2-0.2,0.2-0.5,0.2-1v-0.1c0-0.5-0.1-0.9-0.3-1.1c-0.2-0.2-0.4-0.3-0.8-0.3c-0.3,0-0.6,0.1-0.7,0.4
		c-0.2,0.2-0.3,0.6-0.3,1c0,0.5,0.1,0.8,0.3,1S139.4,68.8,139.7,68.8z"/>
</g>
<g class="st6">
	<path class="st7" d="M58.6,41.5c-0.4,0-0.7,0.2-1,0.5c-0.2,0.3-0.3,0.8-0.3,1.3c0,1.2,0.4,1.8,1.3,1.8c0.4,0,0.8-0.1,1.3-0.3v0.9
		C59.5,45.9,59,46,58.5,46c-0.8,0-1.4-0.2-1.8-0.7s-0.6-1.1-0.6-2c0-0.5,0.1-1,0.3-1.4s0.5-0.7,0.9-1s0.8-0.3,1.3-0.3
		c0.5,0,1,0.1,1.5,0.4l-0.4,0.9c-0.2-0.1-0.4-0.2-0.6-0.2C59,41.5,58.8,41.5,58.6,41.5z"/>
	<path class="st7" d="M64.7,45.9h-1.1v-2.4c0-0.6-0.2-0.9-0.7-0.9c-0.3,0-0.5,0.1-0.7,0.3s-0.2,0.6-0.2,1v1.9H61v-5.6h1.1v1.1
		c0,0.1,0,0.3,0,0.6l0,0.3h0.1c0.2-0.4,0.6-0.6,1.2-0.6c0.5,0,0.8,0.1,1.1,0.4s0.4,0.6,0.4,1.1V45.9z"/>
	<path class="st7" d="M68.4,45.9l-0.2-0.5h0c-0.2,0.2-0.4,0.4-0.6,0.5c-0.2,0.1-0.5,0.1-0.8,0.1c-0.4,0-0.7-0.1-0.9-0.3
		c-0.2-0.2-0.3-0.5-0.3-0.9c0-0.4,0.2-0.7,0.5-1s0.8-0.3,1.4-0.3l0.7,0v-0.2c0-0.4-0.2-0.6-0.6-0.6c-0.3,0-0.7,0.1-1.1,0.3l-0.4-0.7
		c0.5-0.2,1-0.4,1.5-0.4c0.5,0,1,0.1,1.2,0.4s0.4,0.6,0.4,1.1v2.7H68.4z M68.1,44l-0.4,0c-0.3,0-0.6,0.1-0.7,0.2
		c-0.2,0.1-0.2,0.3-0.2,0.5c0,0.3,0.2,0.5,0.5,0.5c0.3,0,0.5-0.1,0.6-0.2s0.2-0.3,0.2-0.6V44z"/>
	<path class="st7" d="M74.1,45.9h-1.1v-2.4c0-0.3-0.1-0.5-0.2-0.7c-0.1-0.1-0.3-0.2-0.5-0.2c-0.3,0-0.5,0.1-0.7,0.3s-0.2,0.5-0.2,1
		v1.9h-1.1v-4h0.8l0.1,0.5h0.1c0.1-0.2,0.3-0.3,0.5-0.4c0.2-0.1,0.5-0.2,0.7-0.2c0.5,0,0.8,0.1,1.1,0.4s0.4,0.6,0.4,1.1V45.9z"/>
	<path class="st7" d="M78.9,45.9h-1.1v-2.4c0-0.3-0.1-0.5-0.2-0.7c-0.1-0.1-0.3-0.2-0.5-0.2c-0.3,0-0.5,0.1-0.7,0.3s-0.2,0.5-0.2,1
		v1.9h-1.1v-4H76l0.1,0.5h0.1c0.1-0.2,0.3-0.3,0.5-0.4c0.2-0.1,0.5-0.2,0.7-0.2c0.5,0,0.8,0.1,1.1,0.4s0.4,0.6,0.4,1.1V45.9z"/>
	<path class="st7" d="M81.9,46c-0.7,0-1.2-0.2-1.5-0.5s-0.5-0.9-0.5-1.5c0-0.7,0.2-1.2,0.5-1.6s0.8-0.6,1.4-0.6c0.6,0,1,0.2,1.3,0.5
		c0.3,0.3,0.5,0.8,0.5,1.3v0.5h-2.6c0,0.3,0.1,0.6,0.3,0.7c0.2,0.2,0.4,0.3,0.7,0.3c0.2,0,0.5,0,0.7-0.1c0.2-0.1,0.4-0.1,0.7-0.2
		v0.9c-0.2,0.1-0.4,0.2-0.6,0.2C82.5,46,82.2,46,81.9,46z M81.7,42.6c-0.2,0-0.4,0.1-0.5,0.2S81,43.2,81,43.4h1.5
		c0-0.3-0.1-0.5-0.2-0.6C82.2,42.6,82,42.6,81.7,42.6z"/>
	<path class="st7" d="M85.5,45.9h-1.1v-5.6h1.1V45.9z"/>
</g>
<g class="st6">
	<path class="st7" d="M51.7,53.4l-1.6-4.2h0c0,0.3,0,0.7,0,1.2v3h-0.5v-4.8h0.8l1.5,3.9h0l1.5-3.9h0.8v4.8h-0.6v-3.1
		c0-0.4,0-0.7,0-1.1h0l-1.6,4.2H51.7z"/>
	<path class="st7" d="M57.7,53.4l-0.1-0.5h0c-0.2,0.2-0.4,0.4-0.5,0.5c-0.2,0.1-0.4,0.1-0.7,0.1c-0.4,0-0.6-0.1-0.8-0.3
		c-0.2-0.2-0.3-0.4-0.3-0.8c0-0.7,0.6-1.1,1.7-1.1l0.6,0v-0.2c0-0.3-0.1-0.5-0.2-0.6s-0.3-0.2-0.6-0.2c-0.3,0-0.6,0.1-1,0.3
		l-0.2-0.4c0.2-0.1,0.4-0.2,0.6-0.2c0.2-0.1,0.4-0.1,0.6-0.1c0.4,0,0.7,0.1,0.9,0.3c0.2,0.2,0.3,0.5,0.3,0.9v2.4H57.7z M56.5,53
		c0.3,0,0.6-0.1,0.8-0.3c0.2-0.2,0.3-0.4,0.3-0.8v-0.3l-0.5,0c-0.4,0-0.7,0.1-0.9,0.2s-0.3,0.3-0.3,0.6c0,0.2,0.1,0.3,0.2,0.4
		C56.1,53,56.3,53,56.5,53z"/>
	<path class="st7" d="M60.9,49.8c0.2,0,0.3,0,0.4,0l-0.1,0.5c-0.1,0-0.3,0-0.4,0c-0.3,0-0.5,0.1-0.7,0.4c-0.2,0.2-0.3,0.5-0.3,0.9
		v1.9h-0.5v-3.6h0.4l0.1,0.7h0c0.1-0.2,0.3-0.4,0.5-0.5C60.4,49.8,60.6,49.8,60.9,49.8z"/>
	<path class="st7" d="M62.5,51.6c0.1-0.1,0.2-0.3,0.4-0.5l1.2-1.2h0.6l-1.4,1.5l1.5,2h-0.7l-1.3-1.7l-0.4,0.4v1.3h-0.5v-5.1h0.5V51
		C62.5,51.2,62.5,51.3,62.5,51.6L62.5,51.6z"/>
	<path class="st7" d="M67,53.5c-0.5,0-0.9-0.2-1.2-0.5s-0.5-0.8-0.5-1.3c0-0.6,0.1-1,0.4-1.4c0.3-0.3,0.7-0.5,1.1-0.5
		c0.4,0,0.8,0.1,1.1,0.4c0.3,0.3,0.4,0.7,0.4,1.2v0.3h-2.5c0,0.4,0.1,0.7,0.3,1c0.2,0.2,0.5,0.3,0.8,0.3c0.4,0,0.8-0.1,1.1-0.2v0.5
		c-0.2,0.1-0.4,0.1-0.5,0.2C67.4,53.5,67.2,53.5,67,53.5z M66.8,50.2c-0.3,0-0.5,0.1-0.7,0.3c-0.2,0.2-0.3,0.4-0.3,0.8h1.9
		c0-0.3-0.1-0.6-0.2-0.8C67.3,50.3,67.1,50.2,66.8,50.2z"/>
	<path class="st7" d="M70.3,53c0.1,0,0.2,0,0.3,0c0.1,0,0.2,0,0.2,0v0.4c-0.1,0-0.1,0.1-0.3,0.1c-0.1,0-0.2,0-0.3,0
		c-0.7,0-1-0.4-1-1.1v-2.1h-0.5V50l0.5-0.2l0.2-0.8h0.3v0.8h1v0.4h-1v2.1c0,0.2,0.1,0.4,0.2,0.5S70.2,53,70.3,53z"/>
	<path class="st7" d="M75.5,53.4l-0.1-0.5h0c-0.2,0.2-0.4,0.4-0.5,0.5c-0.2,0.1-0.4,0.1-0.7,0.1c-0.4,0-0.6-0.1-0.8-0.3
		C73.1,53,73,52.8,73,52.4c0-0.7,0.6-1.1,1.7-1.1l0.6,0v-0.2c0-0.3-0.1-0.5-0.2-0.6s-0.3-0.2-0.6-0.2c-0.3,0-0.6,0.1-1,0.3l-0.2-0.4
		c0.2-0.1,0.4-0.2,0.6-0.2c0.2-0.1,0.4-0.1,0.6-0.1c0.4,0,0.7,0.1,0.9,0.3c0.2,0.2,0.3,0.5,0.3,0.9v2.4H75.5z M74.3,53
		c0.3,0,0.6-0.1,0.8-0.3c0.2-0.2,0.3-0.4,0.3-0.8v-0.3l-0.5,0c-0.4,0-0.7,0.1-0.9,0.2s-0.3,0.3-0.3,0.6c0,0.2,0.1,0.3,0.2,0.4
		C73.9,53,74,53,74.3,53z"/>
	<path class="st7" d="M78.4,53.5c-0.5,0-0.9-0.2-1.2-0.5c-0.3-0.3-0.4-0.8-0.4-1.3c0-0.6,0.1-1.1,0.4-1.4c0.3-0.3,0.7-0.5,1.2-0.5
		c0.2,0,0.3,0,0.5,0.1c0.2,0,0.3,0.1,0.4,0.1l-0.2,0.5c-0.1,0-0.3-0.1-0.4-0.1s-0.3,0-0.4,0c-0.7,0-1.1,0.5-1.1,1.4
		c0,0.4,0.1,0.8,0.3,1c0.2,0.2,0.4,0.4,0.8,0.4c0.3,0,0.6-0.1,0.9-0.2v0.5C79.1,53.4,78.8,53.5,78.4,53.5z"/>
	<path class="st7" d="M81.6,53.5c-0.5,0-0.9-0.2-1.2-0.5c-0.3-0.3-0.4-0.8-0.4-1.3c0-0.6,0.1-1.1,0.4-1.4c0.3-0.3,0.7-0.5,1.2-0.5
		c0.2,0,0.3,0,0.5,0.1c0.2,0,0.3,0.1,0.4,0.1l-0.2,0.5c-0.1,0-0.3-0.1-0.4-0.1s-0.3,0-0.4,0c-0.7,0-1.1,0.5-1.1,1.4
		c0,0.4,0.1,0.8,0.3,1c0.2,0.2,0.4,0.4,0.8,0.4c0.3,0,0.6-0.1,0.9-0.2v0.5C82.3,53.4,82,53.5,81.6,53.5z"/>
	<path class="st7" d="M84.8,53.5c-0.5,0-0.9-0.2-1.2-0.5s-0.5-0.8-0.5-1.3c0-0.6,0.1-1,0.4-1.4c0.3-0.3,0.7-0.5,1.1-0.5
		c0.4,0,0.8,0.1,1.1,0.4c0.3,0.3,0.4,0.7,0.4,1.2v0.3h-2.5c0,0.4,0.1,0.7,0.3,1c0.2,0.2,0.5,0.3,0.8,0.3c0.4,0,0.8-0.1,1.1-0.2v0.5
		c-0.2,0.1-0.4,0.1-0.5,0.2C85.3,53.5,85.1,53.5,84.8,53.5z M84.7,50.2c-0.3,0-0.5,0.1-0.7,0.3c-0.2,0.2-0.3,0.4-0.3,0.8h1.9
		c0-0.3-0.1-0.6-0.2-0.8C85.2,50.3,85,50.2,84.7,50.2z"/>
	<path class="st7" d="M89.4,52.4c0,0.3-0.1,0.6-0.4,0.8c-0.2,0.2-0.6,0.3-1,0.3c-0.5,0-0.8-0.1-1.1-0.2v-0.5
		c0.2,0.1,0.4,0.2,0.6,0.2c0.2,0,0.4,0.1,0.6,0.1c0.3,0,0.5,0,0.7-0.1c0.2-0.1,0.2-0.2,0.2-0.4c0-0.1-0.1-0.3-0.2-0.4
		c-0.1-0.1-0.4-0.2-0.7-0.3c-0.3-0.1-0.6-0.2-0.7-0.3c-0.1-0.1-0.2-0.2-0.3-0.3s-0.1-0.3-0.1-0.4c0-0.3,0.1-0.5,0.4-0.7
		c0.2-0.2,0.6-0.3,1-0.3c0.4,0,0.8,0.1,1.1,0.2l-0.2,0.4c-0.4-0.1-0.7-0.2-1-0.2c-0.3,0-0.4,0-0.6,0.1s-0.2,0.2-0.2,0.3
		c0,0.1,0,0.2,0.1,0.2c0,0.1,0.1,0.1,0.2,0.2c0.1,0.1,0.3,0.1,0.6,0.3c0.4,0.2,0.7,0.3,0.9,0.5C89.3,52,89.4,52.2,89.4,52.4z"/>
	<path class="st7" d="M92.6,52.4c0,0.3-0.1,0.6-0.4,0.8c-0.2,0.2-0.6,0.3-1,0.3c-0.5,0-0.8-0.1-1.1-0.2v-0.5
		c0.2,0.1,0.4,0.2,0.6,0.2c0.2,0,0.4,0.1,0.6,0.1c0.3,0,0.5,0,0.7-0.1c0.2-0.1,0.2-0.2,0.2-0.4c0-0.1-0.1-0.3-0.2-0.4
		c-0.1-0.1-0.4-0.2-0.7-0.3c-0.3-0.1-0.6-0.2-0.7-0.3c-0.1-0.1-0.2-0.2-0.3-0.3S90,50.9,90,50.7c0-0.3,0.1-0.5,0.4-0.7
		c0.2-0.2,0.6-0.3,1-0.3c0.4,0,0.8,0.1,1.1,0.2l-0.2,0.4c-0.4-0.1-0.7-0.2-1-0.2c-0.3,0-0.4,0-0.6,0.1s-0.2,0.2-0.2,0.3
		c0,0.1,0,0.2,0.1,0.2c0,0.1,0.1,0.1,0.2,0.2c0.1,0.1,0.3,0.1,0.6,0.3c0.4,0.2,0.7,0.3,0.9,0.5C92.5,52,92.6,52.2,92.6,52.4z"/>
</g>
<circle class="st7" cx="103.2" cy="103.3" r="31.1"/>
<g class="st6">
	<path class="st8" d="M86.6,102.6c0-5.3,1-9.3,3.1-12c2.1-2.6,5.1-4,9.2-4c1.4,0,2.5,0.1,3.3,0.4v2.7c-1-0.3-2-0.5-3.3-0.5
		c-2.9,0-5.1,0.9-6.7,2.7c-1.5,1.8-2.4,4.7-2.5,8.5h0.2c1.4-2.1,3.5-3.2,6.5-3.2c2.4,0,4.4,0.7,5.8,2.2c1.4,1.5,2.1,3.5,2.1,6
		c0,2.8-0.8,5-2.3,6.7c-1.5,1.6-3.6,2.4-6.2,2.4c-2.8,0-5-1.1-6.7-3.2C87.4,109.3,86.6,106.4,86.6,102.6z M95.7,111.9
		c1.8,0,3.1-0.6,4.1-1.7c1-1.1,1.5-2.7,1.5-4.8c0-1.8-0.5-3.2-1.4-4.2c-0.9-1-2.3-1.5-4-1.5c-1.1,0-2.1,0.2-3.1,0.7
		c-0.9,0.5-1.7,1.1-2.2,1.9c-0.6,0.8-0.8,1.6-0.8,2.5c0,1.3,0.2,2.5,0.7,3.6c0.5,1.1,1.2,2,2.1,2.6
		C93.5,111.6,94.5,111.9,95.7,111.9z"/>
</g>
<g class="st6">
	<path class="st8" d="M115.2,114.6c-2.9,0-5.2-0.9-6.8-2.7c-1.6-1.8-2.4-4.4-2.4-7.7c0-3.4,0.8-6,2.5-7.9s4-2.8,7-2.8
		c1,0,2,0.1,2.9,0.3s1.7,0.5,2.3,0.7l-0.9,2.6c-0.7-0.3-1.4-0.5-2.2-0.7c-0.8-0.2-1.5-0.3-2.1-0.3c-4.1,0-6.2,2.6-6.2,7.9
		c0,2.5,0.5,4.4,1.5,5.8c1,1.3,2.5,2,4.5,2c1.7,0,3.4-0.4,5.2-1.1v2.7C119,114.2,117.3,114.6,115.2,114.6z"/>
</g>
</svg>
